<?xml version="1.0" encoding="utf-8"?>
<!-- Generator: Adobe Illustrator 18.0.0, SVG Export Plug-In . SVG Version: 6.00 Build 0)  -->
<!DOCTYPE svg PUBLIC "-//W3C//DTD SVG 1.1//EN" "http://www.w3.org/Graphics/SVG/1.1/DTD/svg11.dtd">
<svg version="1.1" id="Capa_1" xmlns="http://www.w3.org/2000/svg" xmlns:xlink="http://www.w3.org/1999/xlink" x="0px" y="0px"
	 viewBox="0 0 480 480" enable-background="new 0 0 480 480" xml:space="preserve">
<g>
	<path d="M126,283.3c0-1.8-0.1-3.6-0.2-5.4c-0.1-1.8-0.7-3.6-1.6-5.4c-0.9,0.4-2.1,0.7-3.7,0.8c-1.6,0.1-3.2,0-4.8-0.1
		c-1.6-0.1-3.3-0.3-5-0.4c-1.7-0.1-3.2-0.2-4.6-0.2c-0.9-0.4-1.9-0.7-2.9-0.9c-1-0.1-2.1-0.3-3.1-0.3c-1-0.1-2-0.3-2.9-0.7
		c-0.9-0.4-1.6-1-2-1.9v-3.6c-0.9,0-1.7-0.1-2.5-0.4c-0.7-0.3-1.1-1.3-1.1-3.1c0-0.9,0.3-1.2,0.9-0.9c0.6,0.3,0.9,0,0.9-0.9
		c0-3.6,0.3-6.7,0.9-9.4c0.6-2.7,0.9-5,0.9-6.9c1.9-1.8,4.2-2.5,6.7-2.2c2.5,0.3,5.1,0.4,7.8,0.4s5.4-0.3,8.2-0.9
		c2.8-0.6,6.1-0.9,9.8-0.9c4.5,0,9,0.1,13.6,0.2c4.6,0.1,9.7,0.7,15.2,1.6c1.3,1.3,2.1,3,2.2,5c0.1,2,0.1,4.1-0.2,6.1
		c-0.3,2.1-0.7,4.2-1.2,6.4c-0.5,2.2-0.8,4.1-0.8,5.9c0.9,5.5,1.2,10.6,0.9,15.2c-0.3,4.6,0,9.1,0.9,13.6v28.8h-1.8
		c0.3,0,0.5,0.1,0.7,0.2c0.3,0.3,0.1,0.8-0.7,1.6c0-0.9-0.5-1.3-1.6-1.3c-1,0-1.1,0.4-0.2,1.3h-1.8c-4.6,1-8.8,1.6-12.7,1.6
		c-3.9,0-8-0.5-12.5-1.6c0-0.3-0.1-0.6-0.2-0.9c-0.3-0.6-0.8-0.9-1.6-0.9c-2.8,0.9-5.4,1.7-7.6,2.6c-2.2,0.8-5.1,1.2-8.7,1.2
		c0,0.9,0.1,1.4,0.2,1.6c0.1,0.1,0.7,0.2,1.6,0.2c-0.9,0-1.5-0.1-1.8-0.2c-0.3-0.1-0.9-0.7-1.8-1.6c0,0.9-0.4,1.4-1.1,1.6
		c-0.7,0.1-1.6,0.2-2.5,0.2c-7.3,2.7-15,3.7-23.2,3.1c-8.2-0.6-15.5-2.2-21.8-4.9c-2.2,0.9-4.6,1.1-7.2,0.6
		c-2.6-0.5-5.2-1.4-7.8-2.7c-2.6-1.3-5.1-2.7-7.5-4.3c-2.4-1.6-4.5-3.1-6.2-4.5c-0.9,0.9-1.6,1.1-2,0.7c-0.4-0.4-1.6-0.7-3.3-0.7
		c-4.5-4.5-8.5-9.7-12.2-15.7c-3.6-6-6.8-12.2-9.5-18.4v-1.8c-1.8-5.5-2.8-11.5-3.1-18.1C0.1,255.1,0,249.1,0,243.6
		c0.4-0.9,0.7-2,0.8-3.2c0.1-1.3,0.1-2.6,0.1-3.9c0-1.3,0-2.6,0.1-3.9c0.1-1.3,0.3-2.3,0.8-3.2c0.4-3.6,1.4-7.1,2.8-10.5
		c1.4-3.4,3-6.8,4.7-10c1.7-3.3,3.4-6.5,5-9.6c1.6-3.1,2.9-6.2,3.8-9.4c0.9,0,1.4-0.1,1.6-0.2c0.1-0.1,0.2-0.7,0.2-1.8h3.6
		c0.9-1.8,1.9-3.2,2.9-4.2c1-1,2.5-2,4.2-2.9c0.9,0.9,1.9,0.8,2.9-0.2c1-1,2.5-1.6,4.2-1.6v-1.8c0.4,0.4,1,0.5,1.7,0.2
		c0.7-0.3,1.4-0.7,2.2-1.1c0.8-0.4,1.7-0.8,2.6-1.1c0.9-0.3,1.8-0.2,2.7,0.2c0.9,0,1.2-0.1,0.9-0.2c-0.3-0.1,0-0.7,0.9-1.6
		c1.8-0.9,4-1.6,6.6-2.1c2.6-0.5,5.4-0.9,8.2-1.2c2.9-0.3,5.9-0.6,8.9-0.9c3-0.3,5.9-0.7,8.6-1.1c0.9,0,2.1-0.2,3.6-0.7
		c1.5-0.4,2.7-0.2,3.6,0.7c0.7-0.7,1-1.3,0.7-1.6c-0.1-0.1-0.4-0.2-0.7-0.2c0.9,0,1.5-0.3,1.8-0.9c0.3-0.6,0.9-0.9,1.8-0.9
		c0,0.9,0.2,1.7,0.7,2.5c0.4,0.7,0.2,1.1-0.7,1.1c-0.9,0.9-0.7,1.4,0.4,1.6c1.2,0.1,2.2,0.2,3.1,0.2c6.4,1.8,13.3,4.4,20.8,7.8
		c7.5,3.4,14.4,7.4,20.6,12c0.9,1.8,2.1,3,3.6,3.6c1.5,0.6,2.7,1.8,3.6,3.6c1.8-0.9,3.7-1.4,5.7-1.6c2-0.1,4.3-0.2,7-0.2l3.6,3.6
		c0,4.5-0.3,8.7-0.9,12.7c-0.6,4-0.9,8.8-0.9,14.3c0-0.9-0.1-1-0.2-0.4c-0.1,0.6-0.7,1.3-1.6,2.2c-0.9,0-1.6,0.1-2.1,0.2
		c-0.5,0.1-1,0.2-1.4,0.2s-1-0.1-1.6-0.4c-0.6-0.3-1.3-0.9-2.2-1.8c-4,0-8.5,0.4-13.5,1.2c-5,0.8-10,1.4-15.2,1.9
		c-5.1,0.4-10.2,0.4-15.3-0.1c-5.1-0.5-9.6-2.1-13.6-4.8c-0.9-1.3-1.5-2.8-1.9-4.3c-0.4-1.6-0.7-3.1-0.9-4.7
		c-0.2-1.6-0.5-3.1-0.8-4.7c-0.3-1.6-0.9-3-1.8-4.3c0.9-0.9,1.5-1.4,1.8-1.6c0.3-0.1,0.9-0.2,1.8-0.2v-3.6c1.8,0,3.6-0.2,5.5-0.7
		c1.9-0.4,3.7-0.2,5.5,0.7c-2.7-2.7-5.7-4.4-9-5.2c-3.3-0.8-6.7-1.1-10.1-0.8c-3.4,0.3-6.9,1-10.5,2.2c-3.6,1.2-6.9,2.5-10,3.8
		L45,211.3c0,1.8-0.1,3.2-0.2,4.3c-0.1,1.1-0.7,2.1-1.6,3v1.8c0,2.2-0.3,4.4-0.9,6.5c-0.6,2.1-1.2,4.2-1.9,6.2
		c-0.7,2.1-1.3,4.3-1.9,6.7c-0.6,2.4-0.9,4.9-0.9,7.6c0.9,2.7,2,5.1,3.2,7.1c1.3,2.1,1.4,4.5,0.6,7.1c0.7,0.7,1.3,1,1.6,0.7
		c0.1-0.1,0.2-0.4,0.2-0.7c0,3.6,0.4,6.7,1.3,9.3c0.9,2.6,2.2,6.1,4,10.6c1.8,1.8,3.8,3.6,6,5.4c2.2,1.8,3.8,3.6,4.7,5.4
		c0.9,0,1.7,0.1,2.5,0.2c0.7,0.1,1.1,0.7,1.1,1.6c2.2,0.4,4.5,1.2,6.8,2.2c2.3,1,4.6,2,6.8,3c2.2,1,4.5,1.9,6.7,2.7
		c2.2,0.8,4.5,1.2,6.7,1.2c1.8,0,3.2-0.1,4.2-0.2c1-0.1,2.1-0.7,3.1-1.6c1.8,0,3-0.4,3.6-1.1c0.6-0.7,1.8-1.6,3.6-2.7h1.8l5.4-5.4
		c1.8-1.8,3.9-3.3,6.5-4.5C120.5,286.6,123.1,285.1,126,283.3z M39.5,178.9l-1.8,1.8c0-0.9,0.1-1.4,0.2-1.6
		C38,179,38.6,178.9,39.5,178.9z M86.3,198.8h1.8c0,0.9-0.2,1.7-0.7,2.5c-0.4,0.7-0.2,1.1,0.7,1.1c-1.5,0.7-2.2,0.4-2.2-1.1
		C85.8,200.6,86,199.8,86.3,198.8z M99,162.9c0.3,0,0.6,0.1,0.9,0.2c0.6,0.3,0.9,0.8,0.9,1.6c-0.7,0-1.3-0.3-1.6-0.9
		C99.1,163.5,99,163.2,99,162.9z M106.1,252.7h1.8c-0.9,0-1.4,0.1-1.6,0.2c-0.1,0.1-0.2,0.7-0.2,1.6c-0.7,0-1-0.3-0.7-0.9
		C105.6,253.3,105.8,253,106.1,252.7z M107.9,160.9c-0.7-1.5-0.7-1.9,0.2-1.3c0.4,0.3,1,0.7,1.6,1.3c-0.7,0-1.3,0.4-1.6,1.1
		c-0.1,0.3-0.2,0.6-0.2,0.9V160.9z M113.3,148.4v3.6c-0.9-0.9-1.3-1.5-1.3-1.8C111.9,149.9,112.4,149.3,113.3,148.4z"/>
	<path d="M257.9,207.5c0,12,0.1,25.4,0.2,40.1c0.1,14.7,0.6,29.8,1.3,45.3c5.2,0,10.3,0.3,15.3,0.9c5,0.6,9.6,0.9,13.9,0.9
		c0.4-1.8,0.6-3.5,0.6-5.2c-0.1-1.7-0.2-3.4-0.4-5.1c-0.2-1.7-0.4-3.4-0.6-5.1c-0.1-1.7,0-3.4,0.4-5c1.3,0,2.2,0.1,2.6,0.4
		c0.4,0.3,0.6,0.6,0.6,1c0,0.4-0.1,0.6-0.2,0.7c-0.1,0.1,0-0.1,0.4-0.6c0.9,0,1.4,0,1.4,0c0.1,0,0-0.1-0.2-0.2
		c-0.2-0.1-0.5-0.3-0.8-0.4c-0.3-0.1-0.4-0.4-0.4-0.9c0.7,0,1.6,0.3,2.5,0.9c0.4,0.3,0.8,0.5,1.1,0.7c0.7-0.7,1.6-0.9,2.7-0.6
		c1,0.4,2.5,0.6,4.2,0.6c1.6-0.7,3.7-1.1,6.1-1.1c2.5,0,4.9,0.4,7.5,1.1c-0.9,2.1-1.2,4.3-1,6.7c0.2,2.4,0.7,4.7,1.3,7
		c0.7,2.3,1.3,4.6,2,7c0.7,2.4,1,4.6,1,6.7c0,0.9-0.3,1.8-0.9,2.7c-0.6,0.9-0.9,1.7-0.9,2.5c0,0.7,0.2,1.9,0.7,3.6
		c0.4,1.6,0.2,3.3-0.7,4.9c0.9,0.9,1.7,1.9,2.5,2.9c0.7,1,1.1,2.4,1.1,4c-6.1,1.6-12.4,2.6-18.8,2.9c-6.5,0.3-12.7,0.4-18.8,0.4
		c-5.5,0.4-10.9,0.6-16.1,0.6c-5.2-0.1-10.4-0.1-15.7-0.2c-5.3-0.1-10.6-0.1-16.1,0c-5.4,0.1-11.1,0.6-17.1,1.4
		c-3.4-0.4-7.2-0.6-11.4-0.6c-4.2,0.1-8.4,0.1-12.7,0.1c-4.3,0-8.5-0.1-12.6-0.4c-4.1-0.3-7.8-1.1-11.3-2.5
		c-0.7-6.1-1.5-12.4-2.3-18.8c-0.8-6.5-1.2-12.7-1.2-18.8c0.9-0.6,1.5-1.4,1.8-2.5c0.1-0.4,0.2-0.8,0.2-1.1c0-0.7-0.3-1.3-1-1.6
		c-0.7-0.3-1-0.9-1-1.8c0.9,0,1.5-0.2,1.8-0.7c0.1-0.3,0.2-0.6,0.2-0.9c0.7-2.5,1-4.8,0.8-6.7c-0.2-1.9,0-3.7,0.8-5.4
		c0.9-0.7,2.5-1.2,4.8-1.3c2.3-0.1,4.7-0.2,7.2-0.2c0.6,0,1.3-0.3,2.2-0.9c0.4-0.3,0.8-0.7,1.1-1.1c2.5,1,4.5,2.2,5.8,3.5
		c1.3,1.3,2.8,1.9,4.5,1.9c0,4.3,0.1,8.4,0.2,12.1c0.1,3.8,0.7,8.3,1.6,13.5c5.2,0.7,10,0.9,14.3,0.6c4.3-0.4,8.6-0.6,12.9-0.6
		c-0.4-6.4-0.6-13.1-0.4-20.2c0.1-7.1,0.3-14.3,0.3-21.6c0.1-7.4,0.1-14.9,0-22.5c-0.1-7.7-0.6-15.3-1.4-22.9h-24.1
		c0,3.4-0.1,7.4-0.2,11.9c-0.1,4.5-0.6,8.5-1.3,11.9c-1.8,0.9-4,1.4-6.6,1.7c-2.6,0.2-5.3,0.2-8-0.1c-2.8-0.3-5.4-0.9-8-1.7
		c-2.6-0.8-4.7-1.9-6.4-3.2c0.4-4.3,0.5-8.8,0.1-13.4c-0.4-4.6-0.8-9.1-1.2-13.6c-0.4-4.5-0.8-8.8-1.1-12.9
		c-0.3-4.2-0.2-7.9,0.2-11.4c3.9-1.3,7.8-2.1,11.9-2.2c4.1-0.1,8.2-0.1,12.4,0.1c4.2,0.2,8.4,0.4,12.6,0.7s8.5,0.1,12.8-0.3
		c1.6,0,3-0.3,4.2-0.8c1.2-0.5,2.6-0.8,4.2-0.8c3.4,1.2,6.7,1.9,9.9,2c3.2,0.1,6.4,0.1,9.5-0.2c3.1-0.3,6.2-0.7,9.3-1.1
		c3-0.4,6.1-0.7,9-0.7c1.6,0,3,0.3,4.2,0.8c1.2,0.5,2.6,0.8,4.2,0.8c3,0,5.9-0.2,8.7-0.7c2.8-0.4,5.6-0.9,8.2-1.2
		c2.7-0.4,5.3-0.5,7.9-0.3c2.6,0.1,5.2,0.9,7.7,2.2c1.8-0.7,3.8-0.9,6-0.3c2.2,0.5,4.2,1.2,6,2.1c0.4,2.1,0.7,4.5,0.9,7.4
		c0.1,2.8,0.3,5.8,0.4,8.8c0.1,3,0.2,6,0.2,8.8c0,2.8,0,5.3,0,7.4c-0.9,0.9-1.4,2-1.4,3.2c-0.1,1.3,0,2.5,0.2,3.8
		c0.2,1.3,0.5,2.5,0.8,3.7c0.3,1.2,0.4,2.2,0.4,3.1c-1.6,0.9-3.5,1.4-5.6,1.7c-2.1,0.2-4.2,0.4-6.5,0.6c-2.2,0.1-4.5,0.3-6.8,0.3
		c-2.3,0.1-4.6,0.3-6.8,0.8c-0.7-3.4-1.1-7.1-1-11.1c0.1-4-0.7-7.7-2.3-11.1c-1.6,0-3.8,0.1-6.5,0.3c-2.7,0.2-5.5,0.5-8.4,0.8
		c-2.9,0.3-5.8,0.7-8.6,1.1C262.5,206.6,260,207,257.9,207.5z"/>
	<path d="M475.3,173.1c1.2,0.9,2,2.4,2.6,4.5c0.5,2.1,0.9,4.3,1.1,6.8c0.2,2.5,0.4,4.8,0.4,7.1c0.1,2.3,0.3,4.1,0.6,5.5
		c0,4.9-0.2,9.4-0.7,13.4c-0.4,4-0.7,8.6-0.7,13.8c-0.9,0.7-1.7,1.8-2.6,3.1c-0.8,1.3-1.7,2.5-2.6,3.3c-2.5,0.9-5,1.6-7.5,2.1
		c-2.5,0.5-4.5,0.4-6.1-0.3c-2.5-0.9-4.5-2.3-5.9-4.1c-1.4-1.9-2.4-4-2.9-6.4c-0.5-2.4-0.7-5-0.6-7.8c0.1-2.8,0.4-5.7,0.9-8.7
		c-5.9,0.3-12.2,0.4-18.6,0.2c-6.5-0.1-12.9-0.3-19.3-0.3c-6.4-0.1-12.7-0.1-18.8,0c-6.2,0.1-12,0.6-17.5,1.4c-1,0.9-1.4,2-1,3.5
		c0.4,1.4,0,2.6-1,3.7c3.4,0,6.8,0.2,10.1,0.6c3.3,0.4,6.7,0.2,10.1-0.6c1.8-1,3-1.7,3.6-1.9c0.6-0.2,1.7-0.7,3.3-1.4
		c1.6,0,3.6,0,5.8,0.1c2.2,0.1,4.2,0.5,5.8,1.2c1.6,3.6,2.6,7.4,2.9,11.4c0.3,4,0.4,8.2,0.4,12.5c-1.6,1.6-3,3-4,4
		c-1,1-2.5,1.9-4.5,2.7c-3.4,0-6.5,0.1-9.3,0.3c-2.8,0.2-5.5,0.4-8.1,0.7c-2.7,0.2-5.3,0.4-7.9,0.6c-2.6,0.1-5.4,0.2-8.4,0.2
		c-0.4,3.4-0.7,7.2-0.8,11.5c-0.1,4.2-0.1,8.7-0.1,13.3c0,4.6,0,9.2-0.1,13.7c-0.1,4.5-0.3,8.7-0.8,12.6c1.9,0.7,4,1.2,6.1,1.4
		c2.2,0.2,4.1,0.8,5.9,1.7c0,5.2,0.1,10,0.3,14.5c0.2,4.5-0.5,9.1-2.1,14c-2.1,0.4-4.3,0.7-6.6,0.7c-2.3,0-4.7-0.1-7.1-0.3
		c-2.5-0.2-4.9-0.4-7.5-0.6c-2.5-0.1-5-0.1-7.4,0.2c-1.8,0-3.7,0.2-5.8,0.6c-2.1,0.4-4.2,0.7-6.5,1.1c-2.2,0.4-4.5,0.6-6.8,0.8
		c-2.3,0.1-4.5,0-6.6-0.4c0-5.2-0.2-10.3-0.6-15.3c-0.4-5-0.2-10.1,0.6-15.3c0.9-0.9,2.4-1.1,4.6-0.7c2.2,0.4,4,0.7,5.7,0.7
		c0.9-0.9,2-1.6,3.3-2.1c1.3-0.5,2.4-0.4,3.1,0.3c0-6.8,0.3-13.2,0.8-19.2c0.5-5.9,0.3-11.9-0.8-17.8c0-3.4-0.2-6.5-0.7-9.4
		c-0.4-2.8-0.7-5.9-0.7-9.4v-30.3c-3.6,0-6.9-0.4-10.1-1.2c-3.2-0.8-6.1-1.7-8.6-2.6c0-0.7,0.4-1.1,1.1-1.2c0.7-0.1,1.5-0.1,2.2-0.1
		c0-1.8,0.1-3.9,0.2-6.4c0.1-2.5,0.3-4.9,0.4-7.5c0.1-2.5,0.2-5,0.1-7.4c-0.1-2.4-0.3-4.4-0.8-6c0.9,0,1.4,0.3,1.6,0.9
		c0.1,0.6,0.2,1.4,0.2,2.5c3.3,0,6.3-0.4,9-1.1c2.7-0.7,5.4-1.5,7.9-2.2c2.8-0.4,5.7-0.6,8.7-0.6c3,0.1,5.9,0.1,8.8,0.2
		c2.9,0.1,5.7,0,8.4-0.1c2.7-0.1,5.3-0.6,7.8-1.3c6.1,0.9,11.6,1.1,16.6,0.7c5-0.4,9.7-0.7,14.2-0.7c0.7,0,1.5-0.2,2.2-0.7
		c0.4-0.3,0.8-0.6,1.1-0.9c0,0.3,0.1,0.6,0.2,0.9c0.1,0.4,0.5,0.7,1.1,0.7c6.2,0,12.7-0.3,19.3-0.8c6.6-0.5,12.1-0.8,16.4-0.8
		c0.6,0,1.6,0.3,3.1,0.9c0.6,0.3,1.3,0.5,2,0.7c0.9,0,1.5-0.3,1.8-0.8c0.3-0.5,0.9-0.8,1.8-0.8c1.6,0,3.6,0.1,5.9,0.2
		c2.3,0.1,4.3,0.6,5.9,1.3c0-0.7,0.1-1.3,0.2-1.6C473.9,174.6,474.4,174,475.3,173.1z M332.6,203.5c0,1,0.3,1.4,1,1c0.7-0.4,1,0,1,1
		c-1,0-1.6-0.1-1.8-0.2C332.7,205.1,332.6,204.5,332.6,203.5z M344.9,308.7h1.3c-0.3,0.3-0.5,0.7-0.7,1.1c-0.4,0.7-0.7,1.5-0.7,2.2
		V308.7z M344.9,315.4l1.3,1.8h-1.3V315.4z M372.1,244.3c0.3,0.9,0.4,1.9,0.2,3.1c-0.1,1.2-0.3,2.4-0.6,3.7
		c-0.2,1.3-0.3,2.5-0.3,3.7c0,1.2,0.2,2.2,0.7,3.1c-1-1-1.3-2.3-0.8-3.8c0.5-1.5,0.8-3,0.8-4.7V244.3z M373.4,206.8
		c0.4,0.9,0.7,1.6,0.8,2.2c0.1,0.6,0,1.1-0.1,1.6c-0.1,0.4-0.3,0.9-0.4,1.3c-0.1,0.4-0.2,1.1-0.2,2c-0.7-1-0.9-2.3-0.6-3.7
		C373.2,208.9,373.4,207.7,373.4,206.8z M377.2,298.4c0,0.7-0.4,0.9-1.2,0.6c-0.8-0.4-1.7-0.6-2.6-0.6c0.9-0.9,1.5-1.1,1.8-0.7
		C375.5,298.2,376.2,298.4,377.2,298.4z M381.9,308.7c0.9,0.7,1.4,1.6,1.6,2.7c0.1,1,0.2,2.4,0.2,4c-0.9-1-1.2-2-0.9-2.9
		C383.1,311.6,382.8,310.3,381.9,308.7z M405.8,219.1h-5.1c0.9-1,2-1.8,3.2-2.2C405.1,216.4,405.8,217.1,405.8,219.1z M412.7,202.1
		h3.3C413.8,203.6,412.7,203.6,412.7,202.1z M432.7,178.3c-0.4,0.3-1,0.6-1.8,1c-0.7,0.4-1.4,0.7-2.1,0.9c-0.7,0.2-1.3,0.3-1.8,0.2
		c-0.5-0.1-0.8-0.3-0.8-0.8c1.6,0,2.7-0.2,3.2-0.7C430,178.5,431.1,178.3,432.7,178.3z"/>
</g>
</svg>
