<?xml version="1.0" encoding="utf-8"?>
<!-- Generator: Adobe Illustrator 18.0.0, SVG Export Plug-In . SVG Version: 6.00 Build 0)  -->
<!DOCTYPE svg PUBLIC "-//W3C//DTD SVG 1.1//EN" "http://www.w3.org/Graphics/SVG/1.1/DTD/svg11.dtd">
<svg version="1.1" id="Capa_1" xmlns="http://www.w3.org/2000/svg" xmlns:xlink="http://www.w3.org/1999/xlink" x="0px" y="0px"
	 viewBox="0 0 480 480" enable-background="new 0 0 480 480" xml:space="preserve">
<g>
	<path d="M124.4,37.4c9,3.9,16.7,9.2,23.4,15.8c6.6,6.6,11.9,14.4,15.8,23.4c3.9,9,5.8,18.5,5.8,28.6v18.7c0,5.5-2.5,9-7.6,10.5
		l-53.1,19.3c-5.1,1.6-7.6-0.4-7.6-5.8V108c0-3.9-1.4-7.2-4.1-9.9c-2.7-2.7-6-4.1-9.9-4.1h-4.7c-3.9,0-7.2,1.4-9.9,4.1
		c-2.7,2.7-4.1,6-4.1,9.9v264c0,3.9,1.4,7.2,4.1,9.9c2.7,2.7,6,4.1,9.9,4.1H87c3.9,0,7.2-1.4,9.9-4.1c2.7-2.7,4.1-6,4.1-9.9V268
		H84.7v-66.6h76.5c5.4,0,8.2,2.7,8.2,8.2v165.3c0,10.1-2,19.7-5.8,28.6c-3.9,9-9.2,16.7-15.8,23.4c-6.6,6.6-14.4,11.9-23.4,15.8
		c-9,3.9-18.5,5.8-28.6,5.8H73.6c-10.1,0-19.7-2-28.6-5.8c-9-3.9-16.7-9.1-23.4-15.8c-6.6-6.6-11.9-14.4-15.8-23.4
		C1.9,394.6,0,385,0,374.9V105.1C0,95,1.9,85.5,5.8,76.5c3.9-8.9,9.1-16.7,15.8-23.4C28.2,46.5,36,41.3,45,37.4
		c9-3.9,18.5-5.8,28.6-5.8h22.2C105.9,31.5,115.4,33.5,124.4,37.4z"/>
	<path d="M284.4,436.2c0,5.5-2.7,8.2-8.2,8.2h-52c-5.5,0-8.2-2.7-8.2-8.2V43.8c0-5.4,2.7-8.2,8.2-8.2h52c5.4,0,8.2,2.7,8.2,8.2
		V436.2z"/>
	<path d="M480,43.8v52c0,5.5-2.7,8.2-8.2,8.2h-66.6V188h57.8c5.4,0,8.2,2.7,8.2,8.2v52c0,5.5-2.7,8.2-8.2,8.2h-57.8v179.9
		c0,5.5-2.7,8.2-8.2,8.2h-52c-5.5,0-8.2-2.7-8.2-8.2V43.8c0-5.4,2.7-8.2,8.2-8.2h126.7C477.3,35.6,480,38.3,480,43.8z"/>
</g>
</svg>
