<?xml version="1.0" encoding="utf-8"?>
<!-- Generator: Adobe Illustrator 18.0.0, SVG Export Plug-In . SVG Version: 6.00 Build 0)  -->
<!DOCTYPE svg PUBLIC "-//W3C//DTD SVG 1.1//EN" "http://www.w3.org/Graphics/SVG/1.1/DTD/svg11.dtd">
<svg version="1.1" id="Capa_1" xmlns="http://www.w3.org/2000/svg" xmlns:xlink="http://www.w3.org/1999/xlink" x="0px" y="0px"
	 viewBox="0 0 480 480" enable-background="new 0 0 480 480" xml:space="preserve">
<g>
	<path d="M192.1,198.1h-82.7v-28.9c0-18.2-0.8-29.6-2.4-34.2c-1.6-4.6-5.3-6.9-11.2-6.9c-5.1,0-8.6,2-10.4,5.9
		c-1.8,3.9-2.7,14-2.7,30.2v152.6c0,14.3,0.9,23.7,2.7,28.2c1.8,4.5,5.5,6.8,11,6.8c6,0,10.1-2.6,12.3-7.7
		c2.2-5.1,3.2-15.1,3.2-29.9v-37.7H95.3v-48.3h96.8V399h-52l-7.6-22.8c-5.6,9.8-12.7,17.2-21.3,22.1c-8.6,4.9-18.7,7.4-30.4,7.4
		c-13.9,0-26.9-3.4-39-10.1c-12.1-6.7-21.3-15.1-27.6-25c-6.3-9.9-10.2-20.4-11.8-31.3C0.8,328.3,0,311.9,0,290v-94.5
		c0-30.4,1.6-52.4,4.9-66.2c3.3-13.7,12.7-26.3,28.2-37.8c15.5-11.5,35.6-17.2,60.2-17.2c24.2,0,44.3,5,60.3,14.9
		c16,10,26.4,21.8,31.2,35.5c4.8,13.7,7.3,33.6,7.3,59.6V198.1z"/>
	<path d="M306.8,81v318h-82.7V81H306.8z"/>
	<path d="M340,81h140v63.6h-57.3v60.3h51.1v60.5h-51.1V399H340V81z"/>
</g>
</svg>
