<?xml version="1.0" encoding="utf-8"?>
<!-- Generator: Adobe Illustrator 18.0.0, SVG Export Plug-In . SVG Version: 6.00 Build 0)  -->
<!DOCTYPE svg PUBLIC "-//W3C//DTD SVG 1.1//EN" "http://www.w3.org/Graphics/SVG/1.1/DTD/svg11.dtd">
<svg version="1.1" id="Capa_1" xmlns="http://www.w3.org/2000/svg" xmlns:xlink="http://www.w3.org/1999/xlink" x="0px" y="0px"
	 viewBox="0 0 480 480" enable-background="new 0 0 480 480" xml:space="preserve">
<g>
	<path d="M188.1,300.7c0.2,9.3,0.9,17.5,2.2,24.6c0.5,3.1,1.2,6.1,2.1,9c0.9,2.9,1.9,5.6,3.2,7.9c1.2,2.4,2.6,4.2,4.3,5.6
		c1.6,1.4,3.6,2.1,5.8,2.1c-9.6,0-18.1-1.7-25.5-5.2c-7.4-3.5-13.7-8.1-19-13.8c-5.3-5.7-9.5-12.3-12.8-19.7
		c-3.3-7.5-5.5-15.2-6.8-23.1c-1.8,3.7-5.2,6.7-10.2,8.9c-5,2.2-10.2,3.9-15.6,5c-6.3,1.5-13.2,2.4-20.7,2.7H85
		c-6.3,0-12.1-0.2-17.3-0.5c-5.2-0.3-10-1-14.4-1.9c-4.4-1-8.5-2.4-12.3-4.1c-3.8-1.8-7.5-4.1-11.1-7.1c-4.4-3.4-8.4-7.8-12.1-13
		c-3.7-5.3-6.8-11.1-9.5-17.5c-2.7-6.4-4.8-13.3-6.2-20.6C0.7,232.4,0,225,0,217.3c0-7.6,0.7-15.1,2.2-22.4
		c1.5-7.3,3.5-14.2,6.2-20.6c2.7-6.4,5.8-12.3,9.5-17.5c3.7-5.3,7.7-9.6,12.1-13c3.6-2.9,7.3-5.3,11.1-7.1c3.8-1.8,7.9-3.2,12.3-4.1
		c4.4-1,9.2-1.6,14.4-1.9c5.2-0.3,11-0.5,17.3-0.5h8.8c5.5,0,10.3,0.6,14.4,1.7c4.1,1.1,7.6,2.3,10.7,3.4l7.8,2.9
		c1.3,0.5,2.5,1,3.5,1.6c1.1,0.6,2.2,1.1,3.3,1.6c1.1,0.5,2.4,0.9,3.9,1.1c1.5,0.2,3.3,0.4,5.6,0.4c5.2,0,9.2-0.6,12.1-1.9
		c2.8-1.3,5-2.7,6.3-4.3c1.4-1.5,2.2-3,2.4-4.3c0.2-1.3,0.4-2,0.4-2.2h1.9v69.7h-1.9c0-3.2-1.1-7.3-3.4-12.3
		c-2.3-5-4.7-9.8-7.3-14.5c-1.9-3.6-4.5-7.5-7.7-11.7c-3.2-4.2-6.4-7.7-9.6-10.5c-2.8-2.3-5.6-4.5-8.6-6.8c-3-2.3-6.4-4.3-10.2-6.1
		c-3.8-1.8-8-3.2-12.5-4.3c-4.5-1.1-9.6-1.6-15.1-1.6H85c-1.8,0-3.2,0.2-4.3,0.7c-1.1,0.5-2.5,1.4-4.3,2.7
		c-3.6,2.8-6.3,7.2-8.3,13.3c-1.9,6.1-3.4,12.8-4.4,20c-1,7.2-1.5,14.6-1.7,22.1c-0.2,7.5-0.2,14.1-0.2,19.7v13.6
		c0,5.7,0.1,12.3,0.2,19.7c0.2,7.5,0.7,14.8,1.7,22.1c1,7.2,2.4,13.9,4.4,20c1.9,6.1,4.7,10.5,8.3,13.3c1.8,1.3,3.2,2.2,4.3,2.7
		c1.1,0.5,2.5,0.7,4.3,0.7h10c7.1-1,13.6-3.8,19.2-8.5c2.4-1.9,4.8-4.4,7.2-7.4c2.4-3,4.5-6.7,6.5-11c1.9-4.3,3.5-9.3,4.8-15
		c1.2-5.7,1.9-12.2,2.1-19.5l-1.9-11c-1.3-2.9-2.8-5.2-4.5-6.7c-1.7-1.5-3.4-2.7-5-3.5c-1.8-0.8-3.7-1.3-5.8-1.5h-28v-2.2h45.3
		c9.9,0.8,18.8,4.3,26.6,10.5c3.4,2.6,6.7,5.9,9.9,10c3.2,4.1,6,9.1,8.5,15c2.5,5.9,4.5,12.9,6.1,21
		C187.3,280.8,188.1,290.1,188.1,300.7z"/>
	<path d="M284.1,300.7h24.4v1.9H203.7v-1.9h24.6V134h-24.6v-1.9h104.8v1.9h-24.4V300.7z"/>
	<path d="M430.5,302.6h-81.9H327v-1.9h21.7V134H327v-1.9h21.7h56h19.7H480v56.8h-2.2c0-3.6-0.1-6.8-0.2-9.7
		c-0.2-2.9-0.6-5.8-1.3-8.5c-0.7-2.8-1.8-5.6-3.3-8.6c-1.5-3-3.5-6.4-6.1-10.1c-2.9-4.2-5.9-7.6-9-10c-3.1-2.4-6.4-4.2-9.9-5.4
		c-3.5-1.1-7.2-1.8-11.2-2.1c-4-0.2-8.2-0.4-12.5-0.4h-19.5v79.9h10.5c2.9,0,5.7-0.1,8.3-0.2c2.6-0.2,5-0.6,7.3-1.3
		c2.3-0.7,4.4-1.8,6.3-3.3c2-1.5,3.8-3.5,5.6-6.1c2.8-4.1,5-8.1,6.6-12.2c1.6-4.1,2.4-8.5,2.4-13.4h1.5h0.5v75h-0.5h-1.5
		c0-4.7-0.8-9.1-2.3-13.2c-1.5-4.1-3.8-8.2-6.7-12.4c-3.2-4.7-7.2-7.7-11.8-9c-4.6-1.3-9.9-1.9-15.7-1.9h-10.5v84.5l25.8,0.2V302.6z
		"/>
</g>
</svg>
