<?xml version="1.0" encoding="utf-8"?>
<!-- Generator: Adobe Illustrator 18.0.0, SVG Export Plug-In . SVG Version: 6.00 Build 0)  -->
<!DOCTYPE svg PUBLIC "-//W3C//DTD SVG 1.1//EN" "http://www.w3.org/Graphics/SVG/1.1/DTD/svg11.dtd">
<svg version="1.1" id="Capa_1" xmlns="http://www.w3.org/2000/svg" xmlns:xlink="http://www.w3.org/1999/xlink" x="0px" y="0px"
	 viewBox="0 0 480 480" enable-background="new 0 0 480 480" xml:space="preserve">
<g>
	<path d="M118.3,297.8v-32.6h-34c-2.7,0-4.8-0.7-6.1-2.2c-1.3-1.5-2-3.7-2-6.7c0-3.5,0.6-5.8,1.8-7.1c1.2-1.3,3.5-1.9,6.8-1.9H144
		c2.4,0,4.1,0.8,5.3,2.3c1.1,1.5,1.7,3.8,1.7,6.8c0,3.4-0.8,5.7-2.3,7c-1.5,1.3-4.2,1.9-8,1.9H139v37.9v3.3c0,2.5-0.3,4.2-0.8,5.1
		c-0.5,1-1.6,1.9-3.3,2.8c-5.2,3.1-12.8,5.8-22.7,7.9c-10,2.2-20,3.3-30.3,3.3c-24.5,0-44.2-7.8-59.3-23.4
		C7.5,286.5,0,266.2,0,241.1s7.4-45.8,22.1-62.2c14.7-16.3,33.5-24.5,56.3-24.5c6.2,0,12.4,0.7,18.7,2.1c6.3,1.4,12.8,3.5,19.5,6.4
		c0.9-2.4,2.2-4.1,3.8-5.1c1.6-1,3.7-1.6,6.2-1.6c4.3,0,7.1,1.3,8.6,3.8c1.4,2.6,2.1,8.4,2.1,17.7v18.6c0,4.5-0.8,7.6-2.3,9.4
		s-4.2,2.7-8.1,2.7c-4.7,0-8.2-2.9-10.3-8.8c-0.7-1.7-1.3-3.1-1.8-4c-3.4-7.2-8.2-12.8-14.5-16.7c-6.3-3.9-13.5-5.9-21.6-5.9
		c-16.3,0-29.4,5.9-39.2,17.7c-9.8,11.8-14.6,27.8-14.6,47.8c0,20.7,5.4,37.2,16.2,49.4c10.8,12.2,25.1,18.3,43,18.3
		c5.2,0,10.6-0.7,16.1-2.1C105.7,303,111.7,300.8,118.3,297.8z"/>
	<path d="M284.6,302c7,0,11.5,0.7,13.5,2c2,1.3,2.9,3.8,2.9,7.5c0,3.7-1,6.3-2.9,7.7c-2,1.4-6.5,2.1-13.5,2.1h-83.1h-6.4
		c-3.3,0-5.8-0.8-7.5-2.5c-1.7-1.6-2.6-4.1-2.6-7.4c0-3.6,1-6.1,3-7.5c2-1.3,6.5-2,13.6-2h30.9V178.7h-30.9
		c-6.8,0-11.3-0.7-13.4-2.1c-2.1-1.4-3.1-4-3.1-7.7c0-3.4,0.9-5.9,2.6-7.5c1.7-1.6,4.3-2.4,7.8-2.4h6.2h83.1h6.4
		c3.3,0,5.8,0.8,7.5,2.5c1.7,1.6,2.5,4.1,2.5,7.4c0,3.7-1,6.3-3.1,7.7c-2.1,1.4-6.5,2.1-13.3,2.1h-30.9V302H284.6z"/>
	<path d="M410.2,302h5.3c3.8,0,6.6,0.8,8.4,2.3c1.7,1.5,2.6,3.9,2.6,7.2c0,3.2-0.8,5.6-2.5,7.3c-1.6,1.7-4,2.5-7.1,2.5h-67.5
		c-3.1,0-5.5-0.8-7.1-2.5c-1.6-1.7-2.5-4.1-2.5-7.3c0-3.4,0.9-5.8,2.7-7.3c1.8-1.5,4.8-2.2,9.1-2.2h4.5h8.6V178.7h-8.6
		c-6.9,0-11.4-0.7-13.3-2.1c-2-1.4-2.9-4-2.9-7.7c0-3.2,0.8-5.6,2.5-7.3s4-2.5,7.1-2.5h121.2c3.1,0,5.5,0.9,7.1,2.8
		c1.6,1.9,2.4,4.6,2.4,8.1v35.3c0,3.2-0.8,5.6-2.4,7.2c-1.6,1.6-3.9,2.4-7.1,2.4c-3.8,0-6.4-1-7.8-3c-1.4-2-2.1-6.5-2.1-13.6v-19.6
		h-74.3v46.1h36.1v-3.6c0-6.7,0.6-11.1,1.9-13.4c1.3-2.3,3.6-3.4,6.8-3.4c2.9,0,5,0.9,6.4,2.6c1.3,1.7,2,4.5,2,8.4v34.8
		c0,4.6-0.6,7.7-1.8,9.4c-1.2,1.7-3.4,2.6-6.5,2.6c-3.3,0-5.6-1.1-6.8-3.4c-1.3-2.3-1.9-6.8-1.9-13.4v-4h-36.1V302H410.2z"/>
</g>
</svg>
