<?xml version="1.0" encoding="utf-8"?>
<!-- Generator: Adobe Illustrator 18.0.0, SVG Export Plug-In . SVG Version: 6.00 Build 0)  -->
<!DOCTYPE svg PUBLIC "-//W3C//DTD SVG 1.1//EN" "http://www.w3.org/Graphics/SVG/1.1/DTD/svg11.dtd">
<svg version="1.1" id="Capa_1" xmlns="http://www.w3.org/2000/svg" xmlns:xlink="http://www.w3.org/1999/xlink" x="0px" y="0px"
	 viewBox="0 0 480 480" enable-background="new 0 0 480 480" xml:space="preserve">
<g>
	<path d="M195.8,268.8h-22.5v63.8h-3.4c-2.1-2.1-3.7-3.5-5.1-4.2c-1.3-0.7-3.4-1.1-6.2-1.1c-3.4,0-6.8,0.9-10.3,2.7
		c-3.5,1.8-7.5,3.8-12.1,6c-4.6,2.2-10,4.3-16.1,6c-6.2,1.8-13.7,2.7-22.5,2.7c-13.3,0-25.1-2.2-35.4-6.6
		c-10.3-4.4-20.2-11.4-29.8-20.9c-9.4-9.4-17.1-20.4-23.3-33.1C3.1,271.2,0,256.9,0,241c0-10.7,1.2-20.3,3.7-28.8
		c2.4-8.5,5.4-16,8.8-22.3c3.5-6.4,7-11.7,10.7-16c3.7-4.3,6.7-7.7,9.1-10.1c8.4-8.4,18.1-15.3,28.9-20.5
		c10.9-5.2,23.2-7.9,37.1-7.9c7.1,0,13,0.6,17.6,1.7c4.6,1.1,8.6,2.4,11.9,3.8c3.4,1.4,6.4,2.7,9.1,3.8c2.7,1.1,5.8,1.7,9.1,1.7
		c3.7,0,6.4-0.5,8-1.5c1.6-1,3.1-2.5,4.6-4.4h4.2v56.2h-3.1c-0.8-4.9-2.2-10.6-4.4-17.1c-2.2-6.6-5.5-12.8-10.1-18.8
		c-4.6-6-10.7-11-18.3-15.2c-7.6-4.1-17.3-6.2-29.1-6.2c-14,0-25.3,2.9-33.8,8.8c-8.5,5.9-15.2,13.7-19.9,23.3s-8,20.6-9.5,32.7
		c-1.6,12.2-2.4,24.4-2.4,36.8c0,8.4,0.4,16.9,1.1,25.3c0.7,8.4,2,16.4,3.8,23.9c1.8,7.5,4.3,14.4,7.4,20.8
		c3.2,6.4,7.3,11.8,12.4,16.3c5.6,5.1,11.4,8.6,17.4,10.5c6,2,13.8,3,23.3,3c5.8,0,11.6-1,17.4-3c5.8-2,11-4.9,15.6-8.8
		c4.6-3.9,8.3-8.9,11.2-15c2.9-6.1,4.4-13.2,4.4-21.5v-23.6h-36.2v-3.9h85.7V268.8z"/>
	<path d="M211.2,336.5h31.2V144.4h-31.2v-3.9h90.4v3.9h-31.2v192.1h31.2v3.9h-90.4V336.5z"/>
	<path d="M319.3,336.5h31.2V144.4h-31.2v-3.9H480V189h-3.1c-2.4-7.3-5.1-13.7-7.9-19.2c-2.8-5.5-6.2-10.2-10.1-14
		c-3.9-3.8-8.6-6.7-14-8.6c-5.4-1.9-12-2.8-19.7-2.8h-46.6v91h18.3c6.2,0,11.4-0.6,15.7-1.7c4.3-1.1,8-3.2,11.1-6.3
		c3.1-3.1,5.7-7.3,7.9-12.6c2.2-5.3,4.3-12.2,6.3-20.6h3.1v87.3h-3.1c-1.3-5.4-2.7-10.7-4.1-15.7c-1.4-5.1-3.4-9.5-5.9-13.5
		s-5.9-7.1-10.1-9.4c-4.2-2.3-9.7-3.5-16.4-3.5h-22.8v97.2h31.2v3.9h-90.4V336.5z"/>
</g>
</svg>
