<?xml version="1.0" encoding="utf-8"?>
<!-- Generator: Adobe Illustrator 18.0.0, SVG Export Plug-In . SVG Version: 6.00 Build 0)  -->
<!DOCTYPE svg PUBLIC "-//W3C//DTD SVG 1.1//EN" "http://www.w3.org/Graphics/SVG/1.1/DTD/svg11.dtd">
<svg version="1.1" id="Capa_1" xmlns="http://www.w3.org/2000/svg" xmlns:xlink="http://www.w3.org/1999/xlink" x="0px" y="0px"
	 viewBox="0 0 480 480" enable-background="new 0 0 480 480" xml:space="preserve">
<g>
	<path d="M152.5,137.9c21.2,11.3,34.2,31.1,38.9,59.4h-29c-3.5-15.8-10.6-27.3-21.5-34.6c-10.9-7.2-24.6-10.8-41.1-10.8
		c-19.6,0-36.2,7.5-49.6,22.5c-13.4,15-20.1,37.4-20.1,67.2c0,25.7,5.5,46.7,16.6,62.9c11.1,16.2,29.1,24.2,54.2,24.2
		c19.2,0,35-5.7,47.6-17c12.6-11.3,19-29.7,19.3-55H99.9v-24.3H195v115.8h-18.9l-7.1-27.9c-9.8,10.9-18.4,18.5-25.9,22.7
		c-12.7,7.3-28.8,10.9-48.3,10.9c-25.2,0-46.9-8.3-65.1-24.9C9.9,308.2,0,279.6,0,243.2c0-36.3,9.7-65.1,29-86.5
		c18.4-20.4,42.2-30.7,71.5-30.7C120.6,126.1,137.9,130,152.5,137.9z"/>
	<path d="M249.8,131.7h29.6v216.5h-29.6V131.7z"/>
	<path d="M329.8,131.7H480v26.5H359.2v65.7h106.3v25.8H359.2v98.4h-29.3V131.7z"/>
</g>
</svg>
