<?xml version="1.0" encoding="utf-8"?>
<!-- Generator: Adobe Illustrator 18.0.0, SVG Export Plug-In . SVG Version: 6.00 Build 0)  -->
<!DOCTYPE svg PUBLIC "-//W3C//DTD SVG 1.1//EN" "http://www.w3.org/Graphics/SVG/1.1/DTD/svg11.dtd">
<svg version="1.1" id="Capa_1" xmlns="http://www.w3.org/2000/svg" xmlns:xlink="http://www.w3.org/1999/xlink" x="0px" y="0px"
	 viewBox="0 0 480 480" enable-background="new 0 0 480 480" xml:space="preserve">
<g>
	<path d="M125.4,311.8c0-18.7-0.2-30.3-0.6-34.9c-0.4-4.6-1-7.8-1.7-9.8c-0.7-2-1.9-3.4-3.5-4.2c-1.6-0.8-3.7-1.3-6.1-1.3
		c-1.8-3.3-2.7-6.6-2.7-9.9c0-3.8,0.9-6.5,2.6-8.1c1.7-1.6,4.7-2.4,8.9-2.4h32.2c6.6,0,11,1.1,13.3,3.2c2.3,2.2,3.4,6.5,3.4,13.1
		v30.8c0,13,0.5,29.9,1.5,50.8c-5.4,1-12,1.5-19.6,1.5c-2.1,0-5.9-3.4-11.4-10.3c-18.1,8.9-36.6,13.3-55.6,13.3
		c-30.4,0-52.3-7.4-65.8-22.3C6.7,306.5,0,282.5,0,249.4c0-38.4,8.9-66.8,26.8-85.3c17.9-18.5,43.7-27.7,77.4-27.7
		c21.1,0,35.7,1.5,43.7,4.5c8,3,12,8.4,12,16.3c0,7.6-3,15.2-9.1,22.9c-19.6-10.2-38.6-15.3-57.1-15.3c-13.7,0-24.2,4.9-31.7,14.6
		c-7.4,9.7-11.1,28.1-11.1,55.2c0,31.7,3.6,53.1,10.9,64.2c7.3,11.1,19.9,16.7,37.9,16.7C108.3,315.3,116.9,314.1,125.4,311.8z"/>
	<path d="M209.4,139.3h80.7c1.7,3.6,2.5,7.3,2.5,10.9c0,3.5-0.6,6-1.9,7.3c-1.3,1.3-3.3,2-6.2,2h-14.3c-0.5,12.6-0.7,33.3-0.6,62.3
		c0,53.2,0.2,86.1,0.7,98.7h19.8c1.7,3.5,2.5,7.2,2.5,10.9c0,3.4-0.6,5.9-1.9,7.2c-1.3,1.4-3.3,2.1-6.2,2.1h-81.2
		c-1.8-4.3-2.7-8.5-2.7-12.5c0-2.7,0.7-4.6,2.2-5.8c1.5-1.2,3.6-1.8,6.5-1.8h13.7c0.5-12.6,0.7-45.5,0.7-98.9
		c-0.1-28.8-0.4-49.5-0.9-62.1h-19.6c-1.8-4.3-2.7-8.5-2.7-12.4c0-2.8,0.7-4.7,2.2-6C204.4,139.9,206.5,139.3,209.4,139.3z"/>
	<path d="M328.2,139.3h134.3c6.3,0,10.8,1,13.5,2.9c2.7,1.9,4.1,5.9,4.1,11.9c0,7.3-2.4,14.8-7.2,22.4
		c-20.7-8.4-47.1-12.5-79.4-12.5h-7.1c-0.6,9.6-0.9,30.7-0.9,63.3h72.5c1.7,5.2,2.5,10.6,2.5,16.2c0,3.3-0.6,5.6-1.8,6.7
		c-1.2,1.1-3.4,1.7-6.6,1.7h-66.5c0.1,35.7,0.4,58.6,0.9,68.6h25.5c1.7,3.5,2.5,7.2,2.5,10.9c0,3.4-0.6,5.9-1.9,7.2
		c-1.3,1.4-3.3,2.1-6.2,2.1h-84.1c-1.8-4.3-2.7-8.5-2.7-12.5c0-2.7,0.7-4.6,2.2-5.8c1.5-1.2,3.6-1.8,6.5-1.8h10.8
		c0.6-12.6,0.9-45.5,0.9-98.9c0-28.8-0.3-49.5-0.9-62.1h-16.8c-1.8-4.3-2.7-8.5-2.7-12.4c0-2.8,0.7-4.7,2.2-6
		C323.1,139.9,325.3,139.3,328.2,139.3z"/>
</g>
</svg>
