<?xml version="1.0" encoding="utf-8"?>
<!-- Generator: Adobe Illustrator 18.0.0, SVG Export Plug-In . SVG Version: 6.00 Build 0)  -->
<!DOCTYPE svg PUBLIC "-//W3C//DTD SVG 1.1//EN" "http://www.w3.org/Graphics/SVG/1.1/DTD/svg11.dtd">
<svg version="1.1" id="Capa_1" xmlns="http://www.w3.org/2000/svg" xmlns:xlink="http://www.w3.org/1999/xlink" x="0px" y="0px"
	 viewBox="0 0 480 480" enable-background="new 0 0 480 480" xml:space="preserve">
<g>
	<path d="M89,227.2h88.3v52.2c-0.5,25.7-9,47.2-25.6,64.5c-16.7,17.2-37.7,26.1-63,26.5c-19.5-0.5-35.8-5.4-48.9-14.8
		c-13.3-9-22.9-19.5-29-31.3c-1.8-3.9-3.5-7.6-4.9-11.1c-1.4-3.6-2.5-8.2-3.4-13.7C0.9,289.2,0,269.3,0,240
		c0-29.8,0.9-49.8,2.6-59.8c1.8-10.1,4.6-18.2,8.4-24.5c6-11.9,15.7-22.4,29-31.7c13.1-9.4,29.4-14.2,48.9-14.4
		c24,0.2,43.5,7.6,58.6,22c15.1,14.5,24.6,32.6,28.6,54h-39.9c-3.1-10.4-8.6-19.2-16.7-26.5c-8.4-7-18.7-10.6-30.7-10.8
		c-8.9,0.2-16.5,2.1-22.9,5.5c-6.5,3.5-11.7,7.9-15.7,13.2c-4.9,5.5-8.1,12.6-9.7,21.3c-1.8,9.2-2.7,26.4-2.7,51.7
		c0,25.3,0.9,42.4,2.7,51.3c1.6,8.9,4.8,16.2,9.7,21.7c4,5.3,9.2,9.6,15.7,12.9c6.4,3.9,14,5.8,22.9,5.8c14.7,0,26.8-5.2,36.4-15.5
		c9.6-9.9,14.5-22.9,14.7-39v-13.4H89V227.2z"/>
	<path d="M228.3,111.7h37.6v256.6h-37.6V111.7z"/>
	<path d="M321.2,111.7H480v36.6H358.8v75.9h103.4v34.5H358.8v109.7h-37.6V111.7z"/>
</g>
</svg>
