<?xml version="1.0" encoding="utf-8"?>
<!-- Generator: Adobe Illustrator 18.0.0, SVG Export Plug-In . SVG Version: 6.00 Build 0)  -->
<!DOCTYPE svg PUBLIC "-//W3C//DTD SVG 1.1//EN" "http://www.w3.org/Graphics/SVG/1.1/DTD/svg11.dtd">
<svg version="1.1" id="Capa_1" xmlns="http://www.w3.org/2000/svg" xmlns:xlink="http://www.w3.org/1999/xlink" x="0px" y="0px"
	 viewBox="0 0 480 480" enable-background="new 0 0 480 480" xml:space="preserve">
<g>
	<path d="M50.5,289.5c-0.3,5.5-2.7,9-7.3,10.5c-1.8,0.4-6.3,0.8-13.5,1.3c-1.6,0.1-4.1,0.6-7.6,1.3c-3.5,0.8-6.1,1.2-7.9,1.2
		c-1.9,0-3.8-0.7-5.7-2.1c-1.2-1.9-3.9-5.1-8.1-9.7c0.7-9.2,1.1-23,1-41.5c-0.1-18.5,0.3-32.3,1-41.5c0.2-2.4-0.2-5.8-1.1-10.2
		c-1-4.4-1.4-7.6-1.4-9.6c0-4.5,1.9-8.1,5.7-10.6c3.3,0,8.2-0.3,14.8-1c6.6-0.6,11.5-1,14.8-1c1.8,0,3.5,0.1,5.1,0.2
		c2.3,1.4,4.4,3.4,6.3,6.2c0,4.1-0.1,10.3-0.4,18.5c-0.3,8.2-0.4,14.3-0.4,18.5c0,8.7,0.5,16.5,1.4,23.4c-0.1,2.6,0.1,6.3,0.5,10.9
		c0.4,5.3,0.6,9,0.6,11.1c0,3-0.2,5.7-0.6,8.1c0.1,5,0.2,7.8,0.2,8.4C48.5,285,49.3,287.5,50.5,289.5z M31.2,192.6l-0.8-0.8h-7.3
		c-3.1,0-5.3,0.6-6.7,1.7c-0.1,2.1,0.2,4.9,1,8.6c2.5,0,4.8,0,6.7,0c3.1,0,5.2,0.2,6.3,0.5C30.9,201.1,31.2,197.7,31.2,192.6z
		 M31.4,246.4l-0.9-2.1l-7,0.6c-2.8,0.4-4.9,1.2-6.2,2.4l0.6,10c3.1-0.3,7.5-0.9,13.5-1.7V246.4z M32.2,285.7
		c0.3-0.8,0.5-1.8,0.5-2.9c0-0.8-0.2-2-0.5-3.6c-0.3-1.5-0.5-2.7-0.5-3.6c0-1.1,0.2-2,0.5-2.9l-1-1.3c-1.2-0.3-2.4-0.5-3.6-0.5
		c-3.6,0-7,1.4-10.3,4.1c0,5.8,0.6,9.6,1.7,11.2L32.2,285.7z M30.7,220.9l-1.3-2.5c-0.8,0-2.2-0.1-4-0.3c-1.8-0.2-3.1-0.3-4-0.3
		c-1.5,0.2-2.7,0.6-3.6,1.3c-0.1,1.9-0.2,3.6-0.2,5.1c0,2.9,0.3,4.8,0.8,5.7c0.6,0.2,1.7,0.1,3.2-0.2c1.5-0.4,2.7-0.4,3.4-0.2
		c0.4,0,0.9,0,1.4,0c1.7,0,2.9-1,3.5-3.1C30.2,225.5,30.4,223.7,30.7,220.9z"/>
	<path d="M171.6,182.9c0,0.5-0.2,4.2-0.5,10.9c-0.2,4.1-0.7,7.7-1.6,10.7c0,1.4,0.1,3.5,0.2,6.3c0.2,2.8,0.2,5,0.2,6.3
		c0,2.3-0.2,4.3-0.5,6c0.3,3.4,0.5,7,0.5,10.7c0,6.1-0.7,15.4-2.2,27.9c-1.5,12.5-2.2,22-2.1,28.5c-1.1,3-4.1,5-9,6
		c-7.5,0-11.4-3.9-11.6-11.7c-0.1-4.8-0.7-7.9-1.7-9.5c-9-26.2-17.4-47.3-25.3-63.4l-0.8,0.6c-1.8,32.7-2.7,60.5-2.7,83.2
		c-2,2.6-5.4,4.2-10.1,4.8c-6.7,0.7-10.6,1.4-11.7,1.9c-1.4-0.1-7.9,0.3-19.6,1.3c-1.6-0.5-3.1-2.1-4.5-4.7c-1.4-2.6-2.6-4.3-3.6-5
		c1.2-11.5,1.6-24,1.4-37.5c1.1-11.8,2.5-25.8,4.1-41.8c0.8-7.8,1.3-12.9,1.3-15.4c0-3.9-0.4-7.4-1.1-10.6c0.6-3.4,2.7-5.9,6.2-7.4
		l9.5-2.7l1.6-1.3c1.9,0.3,6.4,0.3,13.6,0c5.9-0.3,10.3,0.1,13.3,1.1c4.4,1.5,7.3,4.6,8.7,9.5c4.6,8.1,9.7,19.1,15,33
		c7.2,18.4,11.7,29.6,13.5,33.6c1.5-1.9,2.4-7.6,2.9-17.2c0.2-4.3,0.2-9.8,0-16.4l-0.5-15.8c-0.2-5.3,0.1-11,1-17.2
		c0.6-2,1.2-3.9,1.7-5.8c1-2.4,2.1-4,3.5-4.7C166.4,176.7,170.1,178.7,171.6,182.9z M99.8,256.6c0.3-1.1,0.5-2.3,0.5-3.6
		c0-1.4-0.2-2.6-0.5-3.8c-2.1-0.4-4.5-0.7-7.3-0.8c-1.6,0-4.1,0-7.5,0c-2.1,0-3.4,1.2-3.9,3.5c-0.1,0.4-0.3,2.5-0.5,6.3l0.8,0.8
		C85.7,258.6,91.8,257.8,99.8,256.6z M99.5,271.8c-2.2,0.1-8.3,1.2-18.1,3.3c-0.5,1.7-0.8,3.6-0.8,5.7c0,2.2,0.3,4.1,0.8,5.7h15.8
		l2.1-1.7L99.5,271.8z M101.2,220.3l-0.9-1.1c-3-0.4-5.7-0.6-8.1-0.6c-3.4,0-6.1,0.5-8.1,1.4l-0.5,12.4c1.8,0.6,3.9,0.9,6.3,0.9
		c3.7,0,7.4-0.3,11.2-0.9V220.3z M102.7,194.4c-0.7-2.2-2.5-3.2-5.2-2.9c-0.4,0-1.7,0-4,0c-1.5,0.1-2.7,0.1-3.8,0
		c-1.7,0.5-2.7,1.9-3,4.1v5.5c0,0.8,0,1.6,0,2.2c3.3,0.1,8.1,0.8,14.3,2.1c1.2-1.1,1.8-2.9,1.6-5.4
		C102.3,197,102.3,195.1,102.7,194.4z"/>
	<path d="M256,271c-2.1,6.3-4.1,11-5.9,14.1c-3,5.2-6.7,8.7-11.2,10.6c-12.1,5.2-20.7,7.8-25.7,7.8c-3.5,0-6.8-0.6-9.8-1.9
		c-11.8-9.6-17.7-20.1-17.7-31.4c0-1.6,0.1-3.1,0.3-4.6c2-3.9,3.8-5.9,5.4-5.9c1.1-0.3,3.2,0.4,6.5,2.1c0.1,0.6,0.5,1.7,1.3,3.1
		c0.7,1.4,1.1,2.6,1.1,3.4c0,0.8-0.3,1.6-1,2.4c-0.1,0.8-0.2,1.6-0.2,2.4c0,2.9,1.1,5.9,3.2,9.3c2.1,3.3,4.4,5.6,7,6.7
		c1.4,0.6,3.9,0.7,7.6,0.3l1.4-1.7c0.7-7.5,1.3-16.8,1.6-28c0.4-14.2,0.8-23.6,1.3-28.4c-1.2-1.5-3.3-3.1-6.3-4.8
		c-3.8-2.1-6.2-3.5-7.1-4.3c-5.8-4.5-8.7-10.8-8.7-18.9c0-2.5,0.3-5.1,1-7.8c2.3-5.9,6.9-10.6,13.8-14.1c6.1-3.2,12.6-4.8,19.5-4.8
		c6.8,0,12.7,2.8,17.7,8.4c1.5,3.4,2.2,5.4,2.2,6.2c0,2.6-1.1,4.3-3.3,4.9c-0.8,0.4-1.6,0.6-2.4,0.6c-1.2,0-2.8-1.2-4.9-3.5
		c-2.1-2.3-3.7-3.5-4.9-3.5c-0.6,0-1.3,0.1-2.1,0.3c-1,2.2-1.3,5.7-1,10.3c0.3,5.3,0.2,8.8-0.5,10.6v6.5c0.1,2.6,1,4.4,2.7,5.4
		c13,7.6,19.5,21.2,19.5,40.7C256.3,266,256.2,268.4,256,271z M221.6,195.2c-0.4-1.4-1-2.1-1.7-2.1c-0.5,0-1.5,0.6-3,1.7
		c-1.1,0.7-2.1,1.5-3,2.4c-1.6,2.2-2.4,4.2-2.4,6c0,2.2,1,4.4,3,6.6c2,2.2,4.1,3.5,6.3,4c0.1-1.8,0.4-4.9,0.8-9.3
		C222,200.4,222,197.3,221.6,195.2z M243.5,265.9c-2-0.5-3.9-0.8-5.5-0.8c-1.9,0-3.6,0.4-5.2,1.1c-0.6,4.4-1,8.2-1,11.2
		c0,2.4,0.2,4.4,0.6,6C239.8,279.5,243.5,273.6,243.5,265.9z M241.9,251.2c-0.8-5.8-3.3-10-7.4-12.7l-0.6,0.8c0.1,1.1,0,2.5-0.3,4.4
		c-0.3,1.8-0.5,3.2-0.5,4c0,1.5,0.5,2.7,1.4,3.8C238.3,251.7,240.7,251.6,241.9,251.2z"/>
	<path d="M372.6,189.4c-2.1,2.9-5,4.4-8.7,4.4c-1.6,0-4-0.3-7.2-0.9c-3.2-0.6-5.6-0.9-7.2-0.9c-1.9,0-3.6,0.3-5.1,1
		c-0.8,3-1.2,7-1.1,12c0.1,6.3,0.1,10.5,0,12.4c-1.1,16.2-2.8,39.1-5.2,68.8c0.5,2.9,0.8,5,0.8,6.5c0,3.9-1.4,6.9-4.1,9
		c-2.2,0.4-6,0.6-11.4,0.6c-4.9,0-8.6,0.4-11.2,1.1c-0.7-0.7-2.9-1.3-6.3-1.6c-3.1-0.3-5-1.2-5.7-2.7c-4.5-2-6.8-6.3-6.8-13
		c0-1.5,0.1-3.6,0.2-6.5c0.2-2.8,0.2-5,0.2-6.5c0-1.2,0-2.2,0-3.2c2-19.5,2.9-33,2.5-40.5c0.6-4,1.1-9.7,1.3-17.1
		c0.3-7.9,0.6-13.7,0.8-17.2c-1.1-0.9-2.4-1.4-4.1-1.4c-0.8,0-2.1,0.1-3.6,0.3c-1.6,0.2-2.8,0.3-3.6,0.4c-0.8,0.1-2.5,0.4-4.9,0.9
		c-1.9,0.4-3.6,0.6-5.1,0.6c-5.1,0-7.7-2.3-7.9-7c0,0.4,0.1-1.7,0.3-6.5c0.6-1.4,1.9-2.1,3.8-2.1h4.8c3.6-0.1,11.9-0.7,24.9-1.7
		c10.1-0.8,18.4-1.3,24.9-1.3c3.5,0,6.8,0,10,0c2.2-0.2,6.1-0.2,11.7,0.2c5.1,0.3,8.9,0,11.6-1c0.6,0.1,2.4,0.4,5.4,0.9
		c2.2,0.3,3.7,1.3,4.4,2.8C372.4,183.1,373,186.1,372.6,189.4z M324.1,274.5c-1.2-0.3-3-0.5-5.5-0.5c-2.4,0-5.5,0.2-9.3,0.5l-1,1.1
		c-0.2,2-0.3,3.8-0.3,5.2c0,2.7,0.3,4.8,1,6c3.3,0.1,8.1-0.2,14.4-1L324.1,274.5z M326.5,248c0.1-1.1-0.5-1.7-1.7-1.9
		c-1.8-0.2-2.8-0.4-3-0.6c-0.7,0.6-1.8,1-3.2,1c-0.5,0-1.3-0.1-2.5-0.4c-1.1-0.3-1.9-0.4-2.5-0.4c-1.5,0-2.6,0.4-3.3,1.3v10.6
		l13.8-1c1.6-0.4,2.4-1.6,2.4-3.5V248z M327.8,218.7c-3.4-0.6-6.4-1-9.2-1c-1.7,0-3.2,0.1-4.6,0.3c-1.6,0.5-2.4,2-2.5,4.4
		c0,0.2,0.2,2.3,0.5,6.2c3.9,1,7.1,1.4,9.6,1.4c2.3,0,4.3-0.3,6.1-1c0.4-1.1,0.6-2.5,0.6-4.4C328.2,223,328.1,221,327.8,218.7z
		 M327.5,201.9c0.5-1.8,0.8-3.3,0.8-4.6c0-1.8-0.5-3.1-1.6-4l-12.2-0.8c-0.8,1.2-1.4,4-1.7,8.6C314.6,202,319.5,202.2,327.5,201.9z"
		/>
	<path d="M479,218.5c0.6,8.9,1,18,1,27.4c0,16.9-1,33-3,48.2c-2.7,2.3-5,3.5-6.7,3.5c-0.7,0-1.5-0.2-2.2-0.5
		c-6-3.5-8.6-7.7-7.8-12.7c-0.3-1.3,0.2-3.2,1.4-5.9c1.3-2.7,1.9-4.5,1.9-5.5c0-1.1-0.3-2.1-1-3.2c-3.6,0.3-14,0.6-31.2,0.8
		c-12.3,0.2-22.8,0.8-31.5,1.9l-0.6,0.8c0.8,6.2,1.4,9.9,1.6,10.9c0.7,4.2,2,7.7,3.6,10.5c-0.5,1.6-1,3.2-1.4,4.8
		c-1.2,2.6-3,4-5.5,4c-2.9,0-5.3-1.5-7.3-4.4c-1.8-2.5-2.8-5.3-3-8.4c-0.4-4.9-0.8-8.2-1.1-10.1c-2.4-13.5-3.6-27.3-3.6-41.3
		c0-19.9,2.5-37.4,7.6-52.6c2.2-2.9,5.8-4.4,10.8-4.8c7.4-0.5,11.6-1,12.5-1.3c8-2.9,17.9-4.3,29.6-4.3c4.1,0,8.6,0.2,13.5,0.5
		c7.2,4.1,12.7,11.2,16.5,21.4c1.5,2.4,2.6,5.8,3.5,10C477.7,213.8,478.5,217.3,479,218.5z M464.5,228.2c-1.2-9-1.9-14.1-2.1-15.3
		c-1.1-5.9-2.7-10.7-4.8-14.4c-1.4-3.8-4.3-6-8.8-6.8c-3.9-0.3-7.9-0.6-11.8-1c-3.2,0.5-9.1,1.4-17.7,2.5c-6.8,1-12.4,2.3-16.9,4.1
		c-3.7,8.1-5.6,16.6-5.6,25.5c0,3.3,0.3,6.4,0.8,9.5c0.6,0,22.3-1.1,65.1-3.3L464.5,228.2z M410.9,251.6c0.2-3.1-1-4.6-3.7-4.6
		c-1.2,0-2.9,0.4-5.1,1.1c-2.2,0.7-3.9,1.1-5,1.1c-0.2,1.3-0.3,2.5-0.3,3.4c0,1.6,0.3,2.8,0.8,3.6h11.7
		C410.3,255.9,410.8,254.4,410.9,251.6z M435.2,245.9c-1.5-0.3-3.1-0.5-4.8-0.5c-1.6,0-3.1,0.2-4.4,0.5c-0.5,0.6-0.8,1.3-0.8,1.9
		c0,0.5,0.2,1.3,0.5,2.3c0.3,1,0.5,1.7,0.5,2.3c0,0.5-0.1,1-0.2,1.5c0.6,1,1.6,1.4,2.9,1.4c1.3,0,3-0.4,5.2-1.1
		C435,251.7,435.4,249,435.2,245.9z M464.6,246.9c-0.7-1.9-2.5-2.7-5.2-2.4c-3.5,0.3-5.8,0.3-6.8-0.2c-2.1,2.2-3,5.2-2.5,9.2
		c1.7,0.5,3.5,0.8,5.4,0.8c2,0,3.9-0.2,5.7-0.6c1.8,0.2,2.9-0.5,3.3-2.2C464.8,250.6,464.8,249.1,464.6,246.9z"/>
</g>
</svg>
