<?xml version="1.0" encoding="utf-8"?>
<!-- Generator: Adobe Illustrator 18.0.0, SVG Export Plug-In . SVG Version: 6.00 Build 0)  -->
<!DOCTYPE svg PUBLIC "-//W3C//DTD SVG 1.1//EN" "http://www.w3.org/Graphics/SVG/1.1/DTD/svg11.dtd">
<svg version="1.1" id="Capa_1" xmlns="http://www.w3.org/2000/svg" xmlns:xlink="http://www.w3.org/1999/xlink" x="0px" y="0px"
	 viewBox="0 0 480 480" enable-background="new 0 0 480 480" xml:space="preserve">
<g>
	<path d="M53,298.3H0v-11.8h20.1v-93H0v-11.8h53v11.8H33.7v93H53V298.3z"/>
	<path d="M163.9,298.3h-15L107,206.2v92.1H93.4V181.7h15.1l42,91.3v-91.3h13.3V298.3z"/>
	<path d="M255.2,194.6c-6.9-2.4-13.5-3.6-19.8-3.6c-7.1,0-12.8,1.6-17.2,4.8c-4.4,3.2-6.7,7.8-6.7,13.8c0,7.1,5.8,13.3,17.4,18.6
		c8.6,4,14.3,6.7,17.1,8.3c2.8,1.5,5.6,3.7,8.5,6.4c2.9,2.7,5.2,5.9,6.9,9.6c1.7,3.7,2.6,7.8,2.6,12.4c0,11.4-3.8,20.2-11.5,26.4
		c-7.6,6.3-16.6,9.4-27,9.4c-10,0-18.8-2-26.4-6L202,283c8.9,4,16.6,6,23.2,6c7.7,0,13.9-2,18.6-6c4.7-4,7-9.5,7-16.5
		c0-5.2-1.5-9.6-4.5-13.2c-3-3.6-8.6-7.3-16.8-11c-8.4-3.9-13.8-6.5-16.2-7.9c-2.5-1.4-4.9-3.3-7.3-5.8c-2.4-2.5-4.3-5.3-5.6-8.4
		c-1.3-3.1-2-6.4-2-10.1c0-9.6,3.5-17.2,10.4-22.6c6.9-5.4,15.7-8.1,26.4-8.1c7.8,0,15.5,1.2,23.2,3.6L255.2,194.6z"/>
	<path d="M374.8,192.7h-36v105.7h-13.5V192.7h-36.1v-11h85.6V192.7z"/>
	<path d="M480,298.3h-14.2l-12.9-40.8h-38.3l-13.1,40.8h-14.1l38.1-116.7h16.3L480,298.3z M449,245.7l-15.3-48.3l-15.2,48.3H449z"/>
</g>
</svg>
