<?xml version="1.0" encoding="utf-8"?>
<!-- Generator: Adobe Illustrator 18.0.0, SVG Export Plug-In . SVG Version: 6.00 Build 0)  -->
<!DOCTYPE svg PUBLIC "-//W3C//DTD SVG 1.1//EN" "http://www.w3.org/Graphics/SVG/1.1/DTD/svg11.dtd">
<svg version="1.1" id="Capa_1" xmlns="http://www.w3.org/2000/svg" xmlns:xlink="http://www.w3.org/1999/xlink" x="0px" y="0px"
	 viewBox="0 0 480 480" enable-background="new 0 0 480 480" xml:space="preserve">
<g>
	<path d="M0,302.7v-12.5h27.6V189.9H0v-12.6h71.5v12.6H43.9v100.2h27.6v12.5H0z"/>
	<path d="M110.6,302.7H95.6V177.3h14.7l44.4,83.5l4.8,12.5h0.4l-0.4-12.5v-83.5h15.1v125.4h-15.1l-43.1-82.1l-6.1-13.2l0.3,13V302.7
		z"/>
	<path d="M197.4,300v-15.4c12.9,6.1,24.7,9.2,35.2,9.2c4.4,0,8.6-0.8,12.7-2.5c4-1.7,7.1-4.1,9.2-7.3c2.1-3.2,3.1-6.6,3.1-10.4
		c0-4.4-1.4-8.4-4.3-12.3c-2.9-3.8-8.2-8-16-12.6l-8.3-4.7l-8.4-4.8c-14.7-8.7-22-19.4-22-32.3c0-9.5,3.3-17.4,9.9-23.8
		c6.6-6.4,16.8-9.7,30.7-9.7c8.9,0,17.6,1.3,25.9,3.9v13.9c-9.2-3.6-18.2-5.4-26.9-5.4c-6.9,0-12.6,1.8-16.9,5.5
		c-4.3,3.7-6.5,8.1-6.5,13.2c0,5.1,1.7,9.4,5,12.8c3.3,3.4,7.5,6.5,12.6,9.3l6.3,3.8l7.8,4.8l6.7,3.9c13.7,8.4,20.6,19,20.6,31.7
		c0,9.7-3.5,18-10.6,25c-7.1,6.9-18.4,10.4-33.9,10.4c-4.9,0-9.7-0.4-14.2-1.3C210.6,304.4,204.7,302.6,197.4,300z"/>
	<path d="M325.5,302.7V191.1h-37.6v-13.8h91.6v13.8h-37.7v111.6H325.5z"/>
	<path d="M401.7,302.7H386l38.6-125.4h16.5L480,302.7h-17.2l-8.6-27.6h-44.1L401.7,302.7z M414,262.6h36.6L435.5,215l-3.5-12.6
		l-3.2,12.6L414,262.6z"/>
</g>
</svg>
