<?xml version="1.0" encoding="utf-8"?>
<!-- Generator: Adobe Illustrator 18.0.0, SVG Export Plug-In . SVG Version: 6.00 Build 0)  -->
<!DOCTYPE svg PUBLIC "-//W3C//DTD SVG 1.1//EN" "http://www.w3.org/Graphics/SVG/1.1/DTD/svg11.dtd">
<svg version="1.1" id="Capa_1" xmlns="http://www.w3.org/2000/svg" xmlns:xlink="http://www.w3.org/1999/xlink" x="0px" y="0px"
	 viewBox="0 0 480 480" enable-background="new 0 0 480 480" xml:space="preserve">
<g>
	<path d="M19.4,212.7c1.8-8.4,2.9-15.7,3.3-22.1c0.2-3.8,0.7-8.4-4.2-10.4c-0.9-0.2-1.5-0.9-1.8-1.8c-0.5-1.8-0.5-1.8,0.5-2.6
		c7.5-4.4,16.8-6.9,23.2-6.9c3.5,0,7.5,0.9,9.7,3.7c2.4,2.7,2.4,7.1,1.8,10.4c-7.1,30.3-14.8,60.5-20.8,91
		c-1.5,7.3-2.7,13.9-2.7,18.8c0,4.7,1.5,9.3,4.2,13.3c0,4-17.2,7.1-22.1,7.1c-8,0-10.4-4.4-10.4-11.7c0-4.7,1.3-11.5,2.7-17.5
		C8,262.7,14.8,234.1,19.4,212.7z"/>
	<path d="M137.9,313c-3.3,0-7.1-5.3-10-12.2c-1.6-4-25-64.1-30.9-79.5c-1.1-2.9-1.8-5.8-2.9-8.6c-8.6,32.1-17.4,74-17.4,82.6
		c0,5.5,1.3,10.2,4,13.7c-6.6,2.6-12.6,4-17.2,4c-7.7,0-11-3.3-11-10.6c0-8.6,6.4-28.7,12.6-52.4c6.4-24.3,14.6-54.6,14.6-62.6
		c0-4-1.1-7.5-3.3-10.4c6.9-5.3,14.6-8.4,19.9-8.4c8,0,13,8.2,19.4,29.2c10.2,33.4,21.7,67.6,28.7,81.6c4-11.9,7.1-27.2,10.6-41.6
		c5.3-21.9,8.8-40.7,8.8-51.5c0-5.8-1.3-10.6-3.5-14.1c6.2-2.7,11.5-4.2,16.4-4.2c8.9,0,11,5.8,11,12.2c0,2.2-0.2,4.4-0.5,6.4
		c-0.5,4.6-29.2,114.7-30.5,123.5C150.7,312.1,144.3,313,137.9,313z"/>
	<path d="M200.2,281.7c2.9,11.1,13.5,17.5,26.3,17.5c15.5,0,25.6-7.9,25.6-22.6c0-8.2-4.2-14.6-11.5-20.6
		c-14.2-11.9-33.1-20.3-33.1-41.3c0-28.9,25.8-47.9,54.4-47.9c15,0,28.1,3.3,28.1,14.2c0,6.2-6.4,13.2-12.1,15.7
		c-5.8-9.3-12.2-15-24.5-15c-13,0-21.6,6.2-21.6,18.6c0,11.1,6.2,15.3,30.9,34.3c9.3,8.4,15.2,17.4,15.2,30.3
		c0,29.8-31.2,49.5-59.5,49.5c-15.5,0-36.3-6.4-36.3-19.5c0-7.3,7.1-16.6,17.7-19.7C199.5,277.5,199.6,279.5,200.2,281.7z"/>
	<path d="M329.9,187.3c-10.2,0-17,2.6-22.3,5.3c-1.6,1.1-3.5,1.6-4.6,1.6c-0.2-2.4-0.4-4.9-0.4-6.9c0-12.8,6.2-18.4,18.3-18.4
		c18.6,0,36.9,0.5,54.6,0.5c14.4,0,21.9-2.7,29.6-4c0.2,0.7,0.4,1.6,0.4,2.7C405.1,182,397.8,188,387,188c-4.6,0-13.9-0.7-18.4-0.7
		c-3.3,0-4.9,0.5-5.7,3.3c-4.2,17.9-13.2,55-19.2,83.5c-1.8,8.6-3.5,17.2-3.5,23.9c0,4.2,0.9,6.4,2.4,10.2c-6,3.8-15.2,5.1-19.7,5.1
		c-7.5,0-11.5-2.9-11.5-8.9c0-4,0.7-10.2,2.9-18.6c1.6-6.4,20.1-83.7,21.9-93.3c0.4-1.8,0.7-3.3,0.9-4.9
		C334.6,187.5,332.4,187.3,329.9,187.3z"/>
	<path d="M367.5,313c-6,0-9.3-2.2-9.3-6.4c0-2.6,0.9-5.7,2.9-9.5c13.3-24.3,31.1-54.1,48.4-83.1c7.1-12.1,15.5-25.6,23.7-40.5
		c6.6-4.9,14.6-7.1,22.8-6.2c5.1,0.5,7.9,4.9,8.2,13c0,4.2,0,9.3,0.2,15.2c0,6.2,0.5,11.5,0.5,16.1c0.5,6.4,2.2,40.5,2.6,46.6
		c0.7,11.5,2,22.1,3.8,30.5c1.8,8.6,4.4,14.6,8.6,18.4c-6.6,4.6-14.4,6.8-22.6,6c-6.4-0.5-10.6-5.7-12.2-17.9c-1.6-10-2-19.9-2.9-30
		c-2.7,2.2-5.7,2.6-8.4,2.6c-10,0.4-19.9,0.5-29.6,0.5c-4.9,2.6-6.8,4.9-8.6,8.4c-2.6,3.7-5.5,10-7.7,14.6
		c-2.4,5.8-4.9,12.4-3.5,18.6C379,311.9,373.3,313,367.5,313z M441.6,252.1c-0.2-15.2-1.5-44.6-2.6-58.8
		c-8.4,15.5-19.9,36.5-32,59.4h30C438.9,252.7,440.2,252.3,441.6,252.1z"/>
</g>
</svg>
