<?xml version="1.0" encoding="utf-8"?>
<!-- Generator: Adobe Illustrator 18.0.0, SVG Export Plug-In . SVG Version: 6.00 Build 0)  -->
<!DOCTYPE svg PUBLIC "-//W3C//DTD SVG 1.1//EN" "http://www.w3.org/Graphics/SVG/1.1/DTD/svg11.dtd">
<svg version="1.1" id="Capa_1" xmlns="http://www.w3.org/2000/svg" xmlns:xlink="http://www.w3.org/1999/xlink" x="0px" y="0px"
	 viewBox="0 0 480 480" enable-background="new 0 0 480 480" xml:space="preserve">
<g>
	<path d="M38.6,299.1H0v-4.3h3.5c2.6,0,4.7-0.9,6.3-2.6c1.7-1.7,2.6-3.8,2.8-6.3v-90.5c-0.2-2.4-1.2-4.6-2.8-6.3
		c-1.7-1.8-3.8-2.7-6.3-2.7H0v-4.3h38.6v4.3h-3.5c-2.6,0-4.7,0.9-6.3,2.7c-1.7,1.8-2.6,3.9-2.8,6.3v90.5c0.2,2.4,1.2,4.5,2.8,6.3
		c1.7,1.7,3.8,2.6,6.3,2.6h3.5V299.1z"/>
	<path d="M175.1,182.4v4.3h-4.3c-2.2,0-4.2,0.8-5.8,2.5c-1.7,1.7-2.6,3.6-2.7,5.8v84.5c0,2.6,0.1,5.1,0.3,7.8c0.2,2.6,0.4,5,0.6,7.1
		c0.2,2.4,0.5,4.8,0.8,7.2h-3.7l-87-92.8v77.6c0.2,2.3,1.1,4.3,2.8,6c1.6,1.7,3.6,2.5,5.9,2.5h4.3v4.3H49.9v-4.3h4.3
		c2.3,0,4.3-0.8,6-2.5c1.7-1.7,2.6-3.7,2.7-6.2v-84.8c0-2.8-0.1-5.5-0.3-8.1c-0.2-2.6-0.4-4.9-0.6-6.9l-0.8-6.7h3.8l87,92.8v-77.5
		c-0.2-2.3-1.1-4.3-2.8-6c-1.6-1.7-3.6-2.5-6.1-2.5h-4.3v-4.3L175.1,182.4z"/>
	<path d="M249.3,248.8c3.4,3.2,5.8,6.7,6.9,10.3c1.2,3.6,1.8,7.2,1.8,10.6c0,4.7-0.8,9-2.3,12.9c-1.5,4-3.6,7.3-6.3,10.1
		c-2.7,2.8-6.1,5-10,6.5c-4,1.6-8.4,2.3-13.3,2.3c-2.1,0-4.5-0.2-7.1-0.5c-2.6-0.3-5.3-0.9-7.9-1.7c-2.7-0.8-5.2-1.8-7.7-3
		c-2.4-1.2-4.5-2.7-6.2-4.5c-0.2-1-0.4-2.1-0.5-3.3c-0.1-1.2-0.2-2.4-0.2-3.6c0-2.7,0.3-5.6,0.8-8.8c0.5-3.2,1.2-6.3,2.1-9.2h4
		c-0.1,1.1-0.2,2-0.3,2.8c-0.1,0.7-0.1,1.4-0.1,1.9c0,6.8,2,12.2,5.9,16.1c4,4,8.9,5.9,14.9,5.9h1.3c2.8-0.1,5.5-0.7,8-1.7
		c2.6-1,4.8-2.4,6.6-4.2c1.8-1.8,3.3-3.9,4.4-6.3c1.1-2.4,1.7-5.2,1.7-8.3c0-5.9-2-10.6-6-14l-31.2-29.1c-3.3-3.2-5.7-6.8-7.2-10.6
		c-1.4-3.8-2.2-7.4-2.2-10.8c0-3.6,0.7-7.1,2-10.5c1.3-3.4,3.3-6.5,5.8-9.3c2.5-2.7,5.6-4.9,9.3-6.6c3.7-1.7,8-2.5,12.9-2.5
		c2.2,0,4.6,0.1,7.1,0.4c2.5,0.3,4.9,0.7,7.1,1.3h7.8v22.7h-4.3c0-5.2-1.7-9.3-5-12.3c-3.3-2.9-7.3-4.4-12-4.4
		c-2.8,0-5.3,0.5-7.6,1.4c-2.3,0.9-4.3,2.2-5.9,3.8c-1.7,1.6-3,3.5-3.8,5.5c-0.9,2.1-1.3,4.3-1.3,6.6c0,2,0.4,4.3,1.3,6.8
		c0.8,2.6,2.5,5,5.1,7.2L249.3,248.8z"/>
	<path d="M347.3,182.2c1.7,0,3.5-0.1,5.6-0.3c2.1-0.2,4.1-0.5,6-0.9c1.9-0.3,3.8-0.8,5.4-1.2c1.7-0.5,2.9-0.9,3.8-1.4v24h-4.3v-4.3
		c0-2.2-0.8-4.1-2.3-5.7c-1.5-1.6-3.4-2.4-5.6-2.5h-29.9v96.2c0.2,2.4,1.2,4.5,2.8,6.3c1.7,1.7,3.8,2.6,6.3,2.6h3.5v4.3h-38.4v-4.3
		h3.5c2.3,0,4.4-0.8,6.1-2.5c1.7-1.7,2.6-3.7,2.8-6.2v-96.3H283c-2.2,0.1-4.1,0.9-5.6,2.5c-1.5,1.6-2.3,3.5-2.3,5.7v4.3h-4.3v-24
		c1,0.5,2.3,0.9,4,1.4c1.7,0.5,3.5,0.9,5.4,1.2c1.9,0.3,4,0.6,6,0.9c2.1,0.2,3.9,0.3,5.6,0.3H347.3z"/>
	<path d="M464.1,285.1v-0.2c1.6,3.5,3.6,5.9,6,7.3c2.4,1.4,4.8,2.2,7,2.2h2.8v4.3h-39.6v-4.3h2.8c1.4,0,2.7-0.4,3.8-1.3
		c1.1-0.9,1.7-2.2,1.7-4c0-1-0.2-2-0.5-3l-10.2-26.9h-41.9l-10.7,27v-0.2c-0.3,1.2-0.5,2.2-0.5,3c0,1.8,0.6,3.1,1.8,4.1
		c1.2,0.9,2.5,1.4,3.9,1.4h2.8v4.3H358v-4.3h2.8c2.2,0,4.6-0.7,7-2.2c2.4-1.4,4.5-3.8,6-7.2h-0.2l37.1-87.7c1.1-2.4,2.1-4.8,3-7
		c0.8-1.9,1.5-3.8,2.1-5.8c0.6-2,0.9-3.6,0.9-4.8h3.7L464.1,285.1z M435.3,251.5l-17.7-47.1L399,251.5H435.3z"/>
</g>
</svg>
