<?xml version="1.0" encoding="utf-8"?>
<!-- Generator: Adobe Illustrator 18.0.0, SVG Export Plug-In . SVG Version: 6.00 Build 0)  -->
<!DOCTYPE svg PUBLIC "-//W3C//DTD SVG 1.1//EN" "http://www.w3.org/Graphics/SVG/1.1/DTD/svg11.dtd">
<svg version="1.1" id="Capa_1" xmlns="http://www.w3.org/2000/svg" xmlns:xlink="http://www.w3.org/1999/xlink" x="0px" y="0px"
	 viewBox="0 0 480 480" enable-background="new 0 0 480 480" xml:space="preserve">
<g>
	<path d="M0,155.3h15.5v168.5H0V155.3z"/>
	<path d="M147,156.1v167.7h-16.6L46.8,184.1v139.8H31.4V156.1h16.7l83.5,139.8V156.1H147z"/>
	<path d="M210.2,325.4c-10.8-0.5-20.8-3.3-29.8-8.5c-10.3-5.9-17.2-13.8-20.9-23.7l14.5-5.3c2.5,6.7,7.6,12.1,15.2,16.2
		c6.7,3.6,13.9,5.6,21.7,6c11.9,0.5,21.9-2.5,29.9-9c7.2-5.8,10.9-12.5,11.3-20.3c0.6-14.6-12.8-25.8-40.2-33.5
		c-19.8-5.5-33.9-13.2-42.4-23.1c-6.5-7.6-9.5-16-9.1-25.5c0.7-16,7.5-27.9,20.3-35.7c10.2-6.2,22.5-9,37-8.3
		c17.4,0.8,31.4,6.8,41.8,18l-11.3,10.5c-7.6-8.2-17.9-12.6-31.2-13.2c-11.4-0.5-20.8,1.6-28.3,6.1c-8.2,5.1-12.5,12.8-13,23.4
		c-0.6,14.3,12.8,25.3,40.2,33.1c19.8,5.5,33.9,13.3,42.4,23.2c6.5,7.6,9.5,16.2,9.1,25.7c-0.6,12.5-6.3,23.1-17.1,31.8
		c-10.3,8.3-22.7,12.4-37.3,12.4C212.2,325.5,211.2,325.4,210.2,325.4z"/>
	<path d="M376.1,156.1v15.4h-43.9v152.3h-15.4V171.6h-44v-15.4H376.1z"/>
	<path d="M480,156.1v167.7h-15.3v-41.9h-66.6l-26.5,41.9h-18.2l106-167.7H480z M407.8,266.5h56.9v-89.8L407.8,266.5z"/>
</g>
</svg>
