<?xml version="1.0" encoding="utf-8"?>
<!-- Generator: Adobe Illustrator 18.0.0, SVG Export Plug-In . SVG Version: 6.00 Build 0)  -->
<!DOCTYPE svg PUBLIC "-//W3C//DTD SVG 1.1//EN" "http://www.w3.org/Graphics/SVG/1.1/DTD/svg11.dtd">
<svg version="1.1" id="Capa_1" xmlns="http://www.w3.org/2000/svg" xmlns:xlink="http://www.w3.org/1999/xlink" x="0px" y="0px"
	 viewBox="0 0 480 480" enable-background="new 0 0 480 480" xml:space="preserve">
<g>
	<path d="M23.5,292.3c0,3,0.8,4.9,2.3,5.6c0.6,0.2,2.7,0.4,6.3,0.4v4.2H0v-3.1c3.6,0,5.7-0.1,6.3-0.4c1.6-0.7,2.3-2.6,2.3-5.6V186.6
		c0-3-0.8-4.9-2.3-5.6c-0.6-0.2-2.7-0.4-6.3-0.4v-3.1h32.1v2c-3.6,0-5.7,0.1-6.3,0.4c-1.6,0.7-2.3,2.6-2.3,5.6V292.3z"/>
	<path d="M140,273.2v-86.6c0-4-1.8-6-5.4-6H131v-3.1h26.2v1.8h-3.2c-3.1,0-4.7,2-4.7,6v118.9H146l-1.3-2l-76.2-99.1v89.1
		c0,4,1.9,6,5.8,6h3.8v4.2H50.3v-3.1H54c3.6,0,5.4-2,5.4-6V183.2l-1.4-1.4c-1.2-1.6-2.9-2.3-5.1-2.3h-2.5v-3.1h15.5
		C82.5,197.7,107.2,230,140,273.2z"/>
	<path d="M256.2,265.6c0,12-3.8,21.5-11.5,28.5c-7.7,7-17.9,10.5-30.8,10.5c-6.4,0-13-1.7-19.9-5.2c-6-3-10.7-6.4-13.9-10.3
		c-1,0-2.4,1.4-4.2,4.3h-2.5V270c1.7-0.7,4-1.9,7-3.4c1.9,7.9,6,14.7,12.3,20.4c6.9,6,14.7,9,23.6,9c7.5,0,13.7-2.2,18.7-6.7
		c5-4.4,7.5-10,7.5-16.6c0-7.6-2.5-13.5-7.6-17.7c-4.6-3.7-12.5-7.1-23.8-10.1c-13.1-3.5-22.4-7.9-28-13.2
		c-5.5-5.3-8.3-12.5-8.3-21.7c0-10,3.5-18.3,10.6-24.8c7.1-6.6,16.1-9.8,27.1-9.8c10.5,0,21.2,4.3,32.1,12.8c0.8,0,1.7-1.2,2.7-3.6
		l0.2-0.5h2.9V205c-1.3,0.8-3.4,2.2-6.1,4c-2.2-6.6-5.8-12.2-10.8-16.8c-5.9-5.4-12.6-8.1-20-8.1c-7.7,0-13.8,1.9-18.4,5.8
		c-4.6,3.9-6.9,9.2-6.9,16.1c0,11.4,10,19.7,29.9,24.9c13.6,3.5,23.4,8,29.3,13.5C253.3,249.9,256.2,257,256.2,265.6z"/>
	<path d="M317.1,292.3c0,4,1.7,6,5.2,6h3.6v3.1l-32.7,1.1v-3.1h3.6c3.5,0,5.2-2,5.2-6V186.6h-18c-10.1,0-16.1,6.1-18,18.2h-2.7
		c0.4-6.9,1-15.8,2-26.9h89.1l0.5,26.9h-2.7c-2.2-12.1-8.2-18.2-18-18.2h-17.1V292.3z"/>
	<path d="M480,298.8v3.1l-30.5,1.4v-3.1c3.8,0,6.1-0.4,6.9-1.1c0.4-0.4,0.5-0.9,0.5-1.6c0-0.8-0.3-2.2-0.9-4L439,257h-48.5
		l-15.3,34.5c-0.7,1.6-1.1,3.1-1.1,4.5c0,2.9,3.2,4.3,9.7,4.3v3.1l-29.4-1.4v-3.1c5.5,0,9.2-2.9,11-8.8l50-113.7h3.2l51.6,115.1
		c1.2,2.8,2.4,4.7,3.7,5.8C475.2,298.3,477.2,298.8,480,298.8z M434.7,247.4L414.5,203l-19.8,44.4H434.7z"/>
</g>
</svg>
