<?xml version="1.0" encoding="utf-8"?>
<!-- Generator: Adobe Illustrator 18.0.0, SVG Export Plug-In . SVG Version: 6.00 Build 0)  -->
<!DOCTYPE svg PUBLIC "-//W3C//DTD SVG 1.1//EN" "http://www.w3.org/Graphics/SVG/1.1/DTD/svg11.dtd">
<svg version="1.1" id="Capa_1" xmlns="http://www.w3.org/2000/svg" xmlns:xlink="http://www.w3.org/1999/xlink" x="0px" y="0px"
	 viewBox="0 0 480 480" enable-background="new 0 0 480 480" xml:space="preserve">
<g>
	<path d="M29.2,283.8c0,2.3,0.8,3.9,2.4,4.7c1.6,0.9,4.6,1.7,8.9,2.7c1.1,0.2,1.7,1.1,1.7,2.7c0,0.7-0.1,1.6-0.3,2.7
		c-3.6-0.2-7.1-0.4-10.6-0.6c-3.6-0.2-6.9-0.3-10.1-0.3c-3.1,0-6.5,0.1-10.2,0.3c-3.7,0.2-7.2,0.4-10.6,0.6
		c-0.2-1.1-0.3-2.1-0.3-2.7c0-1.6,0.6-2.5,1.7-2.7c4.3-0.8,7.3-1.7,8.9-2.6c1.6-0.9,2.4-2.5,2.4-4.8v-87.4c0-2.3-0.8-3.9-2.4-4.9
		c-1.6-1-4.6-1.8-8.9-2.5c-0.7-0.1-1.1-0.5-1.4-1c-0.2-0.6-0.3-1.2-0.3-1.9c0-0.7,0.1-1.6,0.3-2.7c3.4,0.2,7,0.4,10.7,0.6
		c3.7,0.2,7.1,0.3,10,0.3c2.9,0,6.2-0.1,9.9-0.3c3.7-0.2,7.4-0.4,10.9-0.6c0.2,1.1,0.3,2.1,0.3,2.7c0,1.7-0.6,2.7-1.7,2.9
		c-4.4,0.7-7.3,1.5-8.9,2.5c-1.6,1-2.4,2.6-2.4,4.9V283.8z"/>
	<path d="M147,268.5v-71.8c0-2.5-0.9-4.3-2.7-5.3c-1.8-1-4.9-1.8-9.3-2.4c-1.3-0.1-1.9-1.1-1.9-2.9c0-0.7,0.1-1.6,0.3-2.7
		c2.9,0.2,5.8,0.4,8.8,0.6c3,0.2,5.8,0.3,8.4,0.3c2.5,0,5.2-0.1,7.9-0.3c2.7-0.2,5.4-0.4,8.1-0.6c0.2,1.1,0.3,2.1,0.3,2.7
		c0,1.8-0.6,2.8-1.7,2.9c-3.9,0.6-6.6,1.4-8,2.4c-1.4,1-2.1,2.7-2.1,5v101.2c-0.2,0.1-0.6,0.2-1.2,0.3c-0.6,0.1-1,0.1-1.4,0.1
		c-0.8,0-1.5-0.2-2.2-0.6c-0.7-0.4-1.5-1.2-2.4-2.5l-69.7-91.9v80.9c0,2.3,0.8,3.9,2.4,4.8c1.6,0.9,4.7,1.8,9.3,2.6
		c1.1,0.2,1.7,1.1,1.7,2.7c0,0.7-0.1,1.6-0.3,2.7c-2.9-0.2-5.8-0.4-8.7-0.6c-2.9-0.2-5.6-0.3-8.2-0.3c-2.3,0-5,0.1-8.1,0.3
		c-3.1,0.2-5.9,0.4-8.4,0.6c-0.2-1.1-0.3-2.1-0.3-2.7c0-1.6,0.6-2.5,1.9-2.7c4.1-0.8,6.9-1.7,8.3-2.6c1.4-0.9,2.1-2.5,2.1-4.8v-88.3
		c0-1.8-0.7-3.2-2-4.2c-1.3-1-4-1.7-8.2-2.3c-1.3-0.2-1.9-1.2-1.9-2.9c0-0.6,0.1-1.1,0.2-1.5c0-0.3,0.1-0.7,0.2-1.2
		c2.3,0.2,4.5,0.4,6.5,0.5c1.8,0.1,3.8,0.2,5.8,0.3c2.1,0.1,3.9,0.1,5.5,0.1c3.3,0,5.5,0.1,6.6,0.3c1.1,0.2,2,0.8,2.7,1.7L147,268.5
		z"/>
	<path d="M253.7,211.1c-1.1,0.2-2,0.3-2.6,0.3c-1.5,0-2.6-0.3-3.3-0.9c-0.7-0.6-1.2-1.2-1.5-1.9c-3-6.5-6.5-11.3-10.6-14.3
		c-4.1-3-9.7-4.5-16.8-4.5c-2.7,0-5.4,0.4-7.8,1.1c-2.5,0.7-4.6,1.8-6.4,3.3c-1.8,1.4-3.3,3.2-4.4,5.2c-1.1,2.1-1.6,4.4-1.6,6.9
		c0,5.4,2.3,9.8,6.8,13.2c4.5,3.4,11.2,6.9,20,10.5c11,4.4,19.1,9.2,24.3,14.5c5.2,5.3,7.8,11.9,7.8,19.7c0,4.7-0.7,9.1-2.1,13.1
		c-1.4,4.1-3.7,7.6-6.7,10.6c-3,3-7,5.4-11.8,7.1c-4.8,1.7-10.6,2.6-17.3,2.6c-7.1,0-13.5-0.7-19.3-2.2c-5.8-1.5-10.7-3.4-14.7-5.8
		c-0.3-4.8-0.9-9.4-1.5-13.9c-0.7-4.5-1.5-8.9-2.4-13.4c0.8-0.3,1.8-0.5,2.9-0.5c1.4,0,2.4,0.3,3.2,0.9c0.7,0.6,1.4,1.6,2,3
		c2.9,8.2,6.6,14.3,11.1,18.2c4.5,3.9,10.8,5.8,19,5.8c3.7,0,6.9-0.5,9.6-1.5c2.7-1,5-2.5,6.9-4.3c1.8-1.8,3.2-3.9,4.1-6.2
		c0.9-2.3,1.4-4.7,1.4-7.4c0-6-2-10.6-6.1-14.1c-4.1-3.4-9.9-6.5-17.4-9.3c-4.9-1.8-9.4-3.7-13.4-5.8c-4-2-7.4-4.3-10.3-7
		c-2.9-2.6-5.1-5.7-6.6-9.2c-1.5-3.5-2.3-7.6-2.3-12.5c0-4.2,0.8-8.2,2.3-11.9c1.5-3.7,3.8-7,6.7-9.7c2.9-2.7,6.4-4.9,10.6-6.5
		c4.1-1.6,8.8-2.4,13.9-2.4c5.4,0,10.5,0.5,15.5,1.5c4.9,1,10.5,2.7,16.7,5.2c0.2,3.4,0.5,7.1,0.9,11.1
		C252.4,204,253,207.7,253.7,211.1z"/>
	<path d="M329.2,191.2v91.7c0,2.6,1.1,4.5,3.3,5.6c2.2,1.1,5.8,1.9,11,2.5c1.3,0,1.9,0.9,1.9,2.7c0,0.8-0.1,1.8-0.3,2.9
		c-3.7-0.2-7.5-0.4-11.6-0.6c-4.1-0.2-8.2-0.3-12.3-0.3c-4,0-8.1,0.1-12.3,0.3c-4.2,0.2-8.1,0.4-11.8,0.6c-0.2-1.1-0.3-2.1-0.3-2.9
		c0-1.6,0.6-2.5,1.7-2.7c5.2-0.7,8.9-1.5,11.2-2.6c2.3-1,3.4-2.9,3.4-5.5v-91.7h-17.7c-3.4,0-6.3,0.3-8.7,1
		c-2.3,0.7-4.4,1.7-6.1,3.1c-1.7,1.4-3.2,3.2-4.5,5.3c-1.3,2.2-2.6,4.7-3.9,7.6c-0.2,0.6-0.6,1-1.1,1.2c-0.5,0.2-1,0.3-1.5,0.3
		c-1.3,0-2.3-0.3-3.3-1c1.1-4.1,2-7.8,2.6-11c0.6-3.2,1.1-5.9,1.5-8c0.5-2.1,0.9-3.7,1.5-4.9c0.5-1.1,1.3-1.7,2.5-1.7
		c0.8,0,1.9,0.1,3.4,0.2c1.5,0.1,3.1,0.2,4.7,0.3c1.7,0.1,3.3,0.2,5.1,0.3c1.7,0.1,3.3,0.2,4.8,0.2h57.4c1.4,0,2.9-0.1,4.6-0.2
		c1.7-0.1,3.4-0.2,5.2-0.3c1.7-0.1,3.3-0.2,4.7-0.3c1.4-0.1,2.6-0.2,3.5-0.2c1.1,0,2,0.6,2.5,1.8c0.5,1.2,1,2.9,1.5,5.1
		c0.5,2.2,0.9,4.9,1.5,8.1c0.5,3.2,1.4,6.8,2.7,10.6c-0.6,0.2-1.1,0.5-1.6,0.7c-0.5,0.2-1.1,0.3-1.8,0.3c-0.5,0-1-0.1-1.5-0.3
		c-0.6-0.2-1-0.6-1.2-1.2c-1.3-2.9-2.5-5.4-3.8-7.6c-1.3-2.2-2.7-3.9-4.4-5.3c-1.7-1.4-3.7-2.4-6-3.1c-2.3-0.7-5.2-1-8.7-1H329.2z"
		/>
	<path d="M436.6,254.9h-38.3l-11,27.6c-0.6,1.4-0.9,2.5-0.9,3.4c0,2.4,3.5,4.1,10.5,5.2c0.8,0.1,1.3,0.4,1.6,0.9
		c0.3,0.5,0.4,1.1,0.4,1.8c0,0.7-0.1,1.6-0.3,2.7c-3.1-0.2-6.4-0.4-9.8-0.6c-3.4-0.2-6.8-0.3-10.1-0.3c-2.3,0-4.6,0.1-7,0.2
		c-2.4,0.1-4.9,0.3-7.6,0.7c-0.2-0.9-0.3-1.8-0.3-2.7c0-0.8,0.1-1.5,0.4-2.1c0.3-0.6,0.9-0.9,1.8-1c3.5-0.6,6.2-1.3,8-2.1
		c1.8-0.9,3.1-2.2,3.9-4l41.4-99.6c0.8-1.9,1.9-2.9,3.3-2.9c0.5,0,1.1,0.1,2.1,0.3l41.6,102.7c0.7,1.6,2.2,2.9,4.6,3.8
		c2.4,0.9,4.7,1.5,7,1.9c0.7,0.2,1.2,0.5,1.6,0.9c0.4,0.4,0.6,1.1,0.6,2.1c0,0.7-0.1,1.6-0.3,2.7c-3.7-0.2-7.3-0.4-10.8-0.6
		c-3.5-0.2-6.9-0.3-10-0.3c-3.2,0-6.9,0.1-11,0.3c-4.1,0.2-7.8,0.4-11.2,0.6c-0.2-1.1-0.3-2.1-0.3-2.7c0-1,0.2-1.7,0.6-2.1
		c0.4-0.4,0.8-0.6,1.1-0.6c3-0.6,5.4-1.2,7.2-2c1.8-0.7,2.7-1.9,2.7-3.3c0-0.7-0.2-1.5-0.7-2.6L436.6,254.9z M433.8,247.9l-16-42.1
		l-16.7,42.1H433.8z"/>
</g>
</svg>
