<?xml version="1.0" encoding="utf-8"?>
<!-- Generator: Adobe Illustrator 15.0.0, SVG Export Plug-In . SVG Version: 6.00 Build 0)  -->
<!DOCTYPE svg PUBLIC "-//W3C//DTD SVG 1.1//EN" "http://www.w3.org/Graphics/SVG/1.1/DTD/svg11.dtd">
<svg version="1.1" id="Layer_1" xmlns="http://www.w3.org/2000/svg" xmlns:xlink="http://www.w3.org/1999/xlink" x="0px" y="0px"
	 width="75.361px" height="110.77px" viewBox="0 0 75.361 110.77" enable-background="new 0 0 75.361 110.77" xml:space="preserve">
<g>
	<rect x="1.472" y="0.306" width="5.804" height="48.875"/>
	<polygon points="15.4,24.315 20.531,49.181 25.847,49.181 25.847,0.306 20.592,0.306 20.592,26.026 15.46,0.306 10.206,0.306 
		10.206,49.181 15.4,49.181 	"/>
	<path d="M34.398,27.859c2.872,4.767,3.177,7.942,3.177,11.73c0,3.666-0.854,4.521-2.261,4.521c-1.283,0-2.199-0.732-2.199-3.055
		v-4.948h-5.376v6.599c0,4.46,3.055,6.903,7.637,6.903c4.889,0,7.881-2.872,7.881-9.958c0-5.986-0.916-9.896-3.85-14.724
		c-0.428-0.733-2.444-3.971-2.994-4.826c-1.771-2.872-3.238-6.108-3.238-9.836c0-3.299,0.673-4.521,2.321-4.521
		c1.65,0,2.2,1.466,2.2,3.971v4.338h5.437c0,0,0-3.238-0.061-5.315c-0.121-4.889-2.26-8.737-7.576-8.737
		c-4.704,0-7.941,3.421-7.941,9.714c0,5.376,1.1,8.675,3.971,13.38C32.016,23.95,33.726,26.76,34.398,27.859z"/>
	<polygon points="54.001,49.181 54.001,6.109 58.583,6.109 58.583,0.306 43.555,0.306 43.555,6.109 48.198,6.109 48.198,49.181 	"/>
	<path d="M31.174,76.842H15.707v11.832h2.281c0,0,0,6.344,0,7.699c0,2.352-0.285,3.135-1.64,3.135c-1.497,0-1.782-0.783-1.854-3.42
		c-0.071-2.139-0.143-10.193-0.143-14.256c0-3.777,0.07-10.266,0.143-14.471c0-1.924,0.428-2.564,1.425-2.564
		c0.998,0,1.427,0.713,1.427,2.352c0,3.066,0,6.914,0,6.914h13.471c0,0-0.144-8.838-0.285-10.121
		c-0.713-4.846-3.92-11.19-14.754-11.19c-10.978,0-14.469,6.487-15.182,10.834c-0.784,4.773-0.57,13.186-0.57,18.461
		c0,5.271,0.285,14.967,0.428,17.104c0.356,7.697,5.561,11.619,13.115,11.619c2.78,0,5.845-0.928,7.128-2.211l0.641,1.711h9.979
		c0,0-0.144-6.27-0.144-12.758C31.174,93.877,31.174,76.842,31.174,76.842z"/>
	<rect x="33.096" y="53.251" width="14.112" height="57.021"/>
	<polygon points="75.36,66.365 75.36,53.251 49.487,53.251 49.487,110.272 63.171,110.272 63.171,88.248 74.149,88.248 
		74.149,75.418 63.171,75.418 63.171,66.365 	"/>
	<path d="M63.03,49.181c0,0,0.795-9.531,0.916-11.729c0.062,0,4.461,0,4.461,0c0.121,2.198,0.732,11.729,0.732,11.729h5.742
		L70.667,0.306h-8.064l-5.193,48.875H63.03z M65.962,15.274c0.062-1.956,0.43-6.903,0.43-6.903s0.365,5.01,0.428,6.964
		c0.061,1.649,1.344,17.045,1.344,17.045h-3.971C64.192,32.381,65.901,16.435,65.962,15.274z"/>
</g>
</svg>
